M48
; DRILL file {KiCad (5.1.10)-1} date 11/04/22 13:07:23
; FORMAT={-:-/ absolute / inch / decimal}
; #@! TF.CreationDate,2022-11-04T13:07:23-05:00
; #@! TF.GenerationSoftware,Kicad,Pcbnew,(5.1.10)-1
; #@! TF.FileFunction,Plated,1,2,PTH
FMAT,2
INCH
T1C0.0157
T2C0.0197
T3C0.0300
T4C0.0315
T5C0.0354
T6C0.0433
%
G90
G05
T1
X5.12Y-1.955
X5.12Y-5.04
X6.37Y-1.955
X6.37Y-5.04
T2
X4.6843Y-1.9163
X4.6843Y-2.0163
X4.6843Y-2.1163
X4.6843Y-2.2163
X4.6843Y-2.3163
X4.6843Y-2.4163
X4.6843Y-2.5163
X4.6843Y-2.6163
X4.6843Y-2.7163
X4.6843Y-2.8163
X4.6843Y-2.9163
X4.6843Y-3.0163
X4.6843Y-3.1163
X5.6953Y-1.9163
X5.6953Y-2.0163
X5.6953Y-2.1163
X5.6953Y-2.2163
X5.6953Y-2.3163
X5.6953Y-2.4163
X5.6953Y-2.5163
X5.6953Y-2.6163
X5.6953Y-2.7163
X5.6953Y-2.8163
X5.6953Y-2.9163
X5.6953Y-3.0163
X5.6953Y-3.1163
T3
X6.012Y-3.359
X6.112Y-3.3593
X6.212Y-3.359
X6.312Y-3.359
T4
X4.735Y-3.64
X4.735Y-3.775
X4.735Y-3.91
X5.035Y-3.64
X5.035Y-3.775
X5.035Y-3.91
X5.45Y-3.545
X5.45Y-3.765
X5.46Y-3.995
X5.75Y-3.545
X5.75Y-3.765
X5.76Y-3.995
X5.915Y-4.88
X5.975Y-4.66
X5.995Y-5.54
X6.005Y-3.85
X6.035Y-4.075
X6.0537Y-4.66
X6.0737Y-5.54
X6.0837Y-3.85
X6.1119Y-4.88
X6.2319Y-4.075
X6.255Y-4.63
X6.255Y-5.4
X6.315Y-4.84
X6.3937Y-4.84
X6.4519Y-4.63
X6.4519Y-5.4
T5
X5.995Y-3.6
X6.0111Y-1.785
X6.095Y-3.6
X6.11Y-1.785
X6.21Y-1.785
X6.31Y-1.785
X6.365Y-3.705
X6.37Y-4.05
X6.465Y-3.705
X6.47Y-4.05
X6.6725Y-4.4706
X6.6725Y-4.6675
X6.6725Y-4.8556
X6.6725Y-5.0525
X6.6725Y-5.3506
X6.6725Y-5.5475
X6.6925Y-1.8025
X6.6925Y-1.9994
X6.6925Y-2.1875
X6.6925Y-2.3844
X6.6925Y-2.5925
X6.6925Y-2.7894
X6.6925Y-2.9775
X6.6925Y-3.1744
X6.6975Y-3.4775
X6.6975Y-3.6744
X6.6975Y-3.8625
X6.6975Y-4.0594
T6
X5.985Y-5.2075
X6.085Y-4.405
X6.085Y-5.2075
X6.185Y-4.405
X6.185Y-5.2075
X6.28Y-5.575
X6.285Y-4.405
X6.315Y-3.53
X6.315Y-3.88
X6.43Y-5.575
X6.465Y-3.53
X6.465Y-3.88
T0
M30
