%TF.GenerationSoftware,KiCad,Pcbnew,(5.1.10)-1*%
%TF.CreationDate,2021-11-27T19:49:19-05:00*%
%TF.ProjectId,Escollera.kicad_pcb_under,4573636f-6c6c-4657-9261-2e6b69636164,rev?*%
%TF.SameCoordinates,Original*%
%TF.FileFunction,Soldermask,Bot*%
%TF.FilePolarity,Negative*%
%FSLAX46Y46*%
G04 Gerber Fmt 4.6, Leading zero omitted, Abs format (unit mm)*
G04 Created by KiCad (PCBNEW (5.1.10)-1) date 2021-11-27 19:49:19*
%MOMM*%
%LPD*%
G01*
G04 APERTURE LIST*
%ADD10C,1.600000*%
%ADD11C,1.524000*%
%ADD12O,3.160000X4.100000*%
%ADD13R,2.000000X1.905000*%
%ADD14O,2.000000X1.905000*%
%ADD15C,2.000000*%
G04 APERTURE END LIST*
D10*
%TO.C,C4*%
X136017000Y-75739000D03*
X136017000Y-70739000D03*
%TD*%
D11*
%TO.C,U4*%
X175995000Y-124460000D03*
X178535000Y-124460000D03*
X181075000Y-124460000D03*
X183615000Y-124460000D03*
X183615000Y-85540000D03*
X181075000Y-85540000D03*
X178535000Y-85540000D03*
X175995000Y-85540000D03*
%TD*%
D10*
%TO.C,C2*%
X172720000Y-70485000D03*
X172720000Y-75485000D03*
%TD*%
%TO.C,C1*%
X151130000Y-70485000D03*
X151130000Y-75485000D03*
%TD*%
%TO.C,C3*%
X157607000Y-70311000D03*
X157607000Y-75311000D03*
%TD*%
%TO.C,J1*%
G36*
G01*
X178760000Y-74190000D02*
X178760000Y-70590000D01*
G75*
G02*
X179010000Y-70340000I250000J0D01*
G01*
X181670000Y-70340000D01*
G75*
G02*
X181920000Y-70590000I0J-250000D01*
G01*
X181920000Y-74190000D01*
G75*
G02*
X181670000Y-74440000I-250000J0D01*
G01*
X179010000Y-74440000D01*
G75*
G02*
X178760000Y-74190000I0J250000D01*
G01*
G37*
D12*
X184300000Y-72390000D03*
%TD*%
%TO.C,J2*%
X166820000Y-88900000D03*
X162860000Y-88900000D03*
X158900000Y-88900000D03*
G36*
G01*
X153360000Y-90700000D02*
X153360000Y-87100000D01*
G75*
G02*
X153610000Y-86850000I250000J0D01*
G01*
X156270000Y-86850000D01*
G75*
G02*
X156520000Y-87100000I0J-250000D01*
G01*
X156520000Y-90700000D01*
G75*
G02*
X156270000Y-90950000I-250000J0D01*
G01*
X153610000Y-90950000D01*
G75*
G02*
X153360000Y-90700000I0J250000D01*
G01*
G37*
%TD*%
%TO.C,J3*%
G36*
G01*
X153360000Y-111020000D02*
X153360000Y-107420000D01*
G75*
G02*
X153610000Y-107170000I250000J0D01*
G01*
X156270000Y-107170000D01*
G75*
G02*
X156520000Y-107420000I0J-250000D01*
G01*
X156520000Y-111020000D01*
G75*
G02*
X156270000Y-111270000I-250000J0D01*
G01*
X153610000Y-111270000D01*
G75*
G02*
X153360000Y-111020000I0J250000D01*
G01*
G37*
X158900000Y-109220000D03*
X162860000Y-109220000D03*
X166820000Y-109220000D03*
%TD*%
D13*
%TO.C,U1*%
X164465000Y-70485000D03*
D14*
X164465000Y-73025000D03*
X164465000Y-75565000D03*
%TD*%
%TO.C,U2*%
X142875000Y-75565000D03*
X142875000Y-73025000D03*
D13*
X142875000Y-70485000D03*
%TD*%
D11*
%TO.C,U3*%
X137895000Y-85540000D03*
X140435000Y-85540000D03*
X142975000Y-85540000D03*
X145515000Y-85540000D03*
X145515000Y-124460000D03*
X142975000Y-124460000D03*
X140435000Y-124460000D03*
X137895000Y-124460000D03*
%TD*%
%TO.C,U5*%
X125720000Y-101090000D03*
X125720000Y-98550000D03*
X125720000Y-96010000D03*
X125720000Y-93470000D03*
X125720000Y-90930000D03*
X125720000Y-88390000D03*
X125720000Y-85850000D03*
X125720000Y-83310000D03*
X125720000Y-80770000D03*
X125720000Y-78230000D03*
X125720000Y-75690000D03*
X125720000Y-73150000D03*
X125720000Y-70580000D03*
D15*
X126170000Y-67580000D03*
X104020000Y-67580000D03*
D11*
X103470000Y-101090000D03*
X103470000Y-98550000D03*
X103470000Y-96010000D03*
X103470000Y-93470000D03*
X103470000Y-90930000D03*
X103470000Y-88390000D03*
X103470000Y-85850000D03*
X103470000Y-83310000D03*
X103470000Y-80770000D03*
X103470000Y-78230000D03*
X103470000Y-75690000D03*
X103470000Y-73150000D03*
X103470000Y-70580000D03*
%TD*%
M02*
