M48
; DRILL file {KiCad (5.1.10)-1} date 11/27/21 19:47:31
; FORMAT={-:-/ absolute / metric / decimal}
; #@! TF.CreationDate,2021-11-27T19:47:31-05:00
; #@! TF.GenerationSoftware,Kicad,Pcbnew,(5.1.10)-1
; #@! TF.FileFunction,Plated,1,2,PTH
FMAT,2
METRIC
T1C0.400
T2C0.762
T3C0.800
T4C0.900
T5C1.100
T6C1.700
%
G90
G05
T1
X101.6Y-59.055
X101.6Y-131.445
X188.023Y-130.874
X188.659Y-58.547
T2
X137.895Y-85.54
X140.435Y-85.54
X142.975Y-85.54
X145.515Y-85.54
X175.995Y-85.54
X178.535Y-85.54
X181.075Y-85.54
X183.615Y-85.54
T3
X136.017Y-70.739
X136.017Y-75.739
X151.13Y-70.485
X151.13Y-75.485
X157.607Y-70.311
X157.607Y-75.311
X172.72Y-70.485
X172.72Y-75.485
T4
X103.47Y-70.58
X103.47Y-73.15
X103.47Y-75.69
X103.47Y-78.23
X103.47Y-80.77
X103.47Y-83.31
X103.47Y-85.85
X103.47Y-88.39
X103.47Y-90.93
X103.47Y-93.47
X103.47Y-96.01
X103.47Y-98.55
X103.47Y-101.09
X125.72Y-70.58
X125.72Y-73.15
X125.72Y-75.69
X125.72Y-78.23
X125.72Y-80.77
X125.72Y-83.31
X125.72Y-85.85
X125.72Y-88.39
X125.72Y-90.93
X125.72Y-93.47
X125.72Y-96.01
X125.72Y-98.55
X125.72Y-101.09
X137.895Y-124.46
X140.435Y-124.46
X142.975Y-124.46
X145.515Y-124.46
X175.995Y-124.46
X178.535Y-124.46
X181.075Y-124.46
X183.615Y-124.46
T5
X142.875Y-70.485
X142.875Y-73.025
X142.875Y-75.565
X164.465Y-70.485
X164.465Y-73.025
X164.465Y-75.565
T6
X154.94Y-88.9
X154.94Y-109.22
X158.9Y-88.9
X158.9Y-109.22
X162.86Y-88.9
X162.86Y-109.22
X166.82Y-88.9
X166.82Y-109.22
X180.34Y-72.39
X184.3Y-72.39
T0
M30
