%TF.GenerationSoftware,KiCad,Pcbnew,(5.1.10)-1*%
%TF.CreationDate,2021-11-27T19:49:19-05:00*%
%TF.ProjectId,Escollera.kicad_pcb_under,4573636f-6c6c-4657-9261-2e6b69636164,rev?*%
%TF.SameCoordinates,Original*%
%TF.FileFunction,Copper,L2,Bot*%
%TF.FilePolarity,Positive*%
%FSLAX46Y46*%
G04 Gerber Fmt 4.6, Leading zero omitted, Abs format (unit mm)*
G04 Created by KiCad (PCBNEW (5.1.10)-1) date 2021-11-27 19:49:19*
%MOMM*%
%LPD*%
G01*
G04 APERTURE LIST*
%TA.AperFunction,NonConductor*%
%ADD10C,0.300000*%
%TD*%
%TA.AperFunction,ComponentPad*%
%ADD11C,1.600000*%
%TD*%
%TA.AperFunction,ComponentPad*%
%ADD12C,1.524000*%
%TD*%
%TA.AperFunction,ComponentPad*%
%ADD13O,3.160000X4.100000*%
%TD*%
%TA.AperFunction,ComponentPad*%
%ADD14R,2.000000X1.905000*%
%TD*%
%TA.AperFunction,ComponentPad*%
%ADD15O,2.000000X1.905000*%
%TD*%
%TA.AperFunction,ViaPad*%
%ADD16C,2.500000*%
%TD*%
%TA.AperFunction,Conductor*%
%ADD17C,0.300000*%
%TD*%
%TA.AperFunction,Conductor*%
%ADD18C,0.254000*%
%TD*%
%TA.AperFunction,Conductor*%
%ADD19C,0.100000*%
%TD*%
G04 APERTURE END LIST*
D10*
X181469142Y-62829214D02*
X181549500Y-62900642D01*
X181772714Y-62972071D01*
X181915571Y-62972071D01*
X182120928Y-62900642D01*
X182245928Y-62757785D01*
X182299500Y-62614928D01*
X182335214Y-62329214D01*
X182308428Y-62114928D01*
X182201285Y-61829214D01*
X182112000Y-61686357D01*
X181951285Y-61543500D01*
X181728071Y-61472071D01*
X181585214Y-61472071D01*
X181379857Y-61543500D01*
X181317357Y-61614928D01*
X180245928Y-62186357D02*
X180040571Y-62257785D01*
X179978071Y-62329214D01*
X179924500Y-62472071D01*
X179951285Y-62686357D01*
X180040571Y-62829214D01*
X180120928Y-62900642D01*
X180272714Y-62972071D01*
X180844142Y-62972071D01*
X180656642Y-61472071D01*
X180156642Y-61472071D01*
X180022714Y-61543500D01*
X179960214Y-61614928D01*
X179906642Y-61757785D01*
X179924500Y-61900642D01*
X180013785Y-62043500D01*
X180094142Y-62114928D01*
X180245928Y-62186357D01*
X180745928Y-62186357D01*
X179719142Y-63114928D02*
X178576285Y-63114928D01*
X178228071Y-61472071D02*
X177915571Y-62972071D01*
X177228071Y-61472071D01*
X176129857Y-62972071D02*
X176987000Y-62972071D01*
X176558428Y-62972071D02*
X176370928Y-61472071D01*
X176540571Y-61686357D01*
X176701285Y-61829214D01*
X176853071Y-61900642D01*
X174245928Y-61614928D02*
X174165571Y-61543500D01*
X174013785Y-61472071D01*
X173656642Y-61472071D01*
X173522714Y-61543500D01*
X173460214Y-61614928D01*
X173406642Y-61757785D01*
X173424500Y-61900642D01*
X173522714Y-62114928D01*
X174487000Y-62972071D01*
X173558428Y-62972071D01*
X172870928Y-61472071D02*
X171870928Y-61472071D01*
X172701285Y-62972071D01*
X170219142Y-61400642D02*
X171745928Y-63329214D01*
X169129857Y-62972071D02*
X169987000Y-62972071D01*
X169558428Y-62972071D02*
X169370928Y-61472071D01*
X169540571Y-61686357D01*
X169701285Y-61829214D01*
X169853071Y-61900642D01*
X167701285Y-62972071D02*
X168558428Y-62972071D01*
X168129857Y-62972071D02*
X167942357Y-61472071D01*
X168112000Y-61686357D01*
X168272714Y-61829214D01*
X168424500Y-61900642D01*
X165790571Y-61400642D02*
X167317357Y-63329214D01*
X165388785Y-61614928D02*
X165308428Y-61543500D01*
X165156642Y-61472071D01*
X164799500Y-61472071D01*
X164665571Y-61543500D01*
X164603071Y-61614928D01*
X164549500Y-61757785D01*
X164567357Y-61900642D01*
X164665571Y-62114928D01*
X165629857Y-62972071D01*
X164701285Y-62972071D01*
X163585214Y-61472071D02*
X163442357Y-61472071D01*
X163308428Y-61543500D01*
X163245928Y-61614928D01*
X163192357Y-61757785D01*
X163156642Y-62043500D01*
X163201285Y-62400642D01*
X163308428Y-62686357D01*
X163397714Y-62829214D01*
X163478071Y-62900642D01*
X163629857Y-62972071D01*
X163772714Y-62972071D01*
X163906642Y-62900642D01*
X163969142Y-62829214D01*
X164022714Y-62686357D01*
X164058428Y-62400642D01*
X164013785Y-62043500D01*
X163906642Y-61757785D01*
X163817357Y-61614928D01*
X163737000Y-61543500D01*
X163585214Y-61472071D01*
X162531642Y-61614928D02*
X162451285Y-61543500D01*
X162299500Y-61472071D01*
X161942357Y-61472071D01*
X161808428Y-61543500D01*
X161745928Y-61614928D01*
X161692357Y-61757785D01*
X161710214Y-61900642D01*
X161808428Y-62114928D01*
X162772714Y-62972071D01*
X161844142Y-62972071D01*
X160415571Y-62972071D02*
X161272714Y-62972071D01*
X160844142Y-62972071D02*
X160656642Y-61472071D01*
X160826285Y-61686357D01*
X160987000Y-61829214D01*
X161138785Y-61900642D01*
D11*
%TO.P,C4,2*%
%TO.N,GND*%
X136017000Y-75739000D03*
%TO.P,C4,1*%
%TO.N,Net-(C4-Pad1)*%
X136017000Y-70739000D03*
%TD*%
D12*
%TO.P,U4,1*%
%TO.N,Net-(U4-Pad1)*%
X175995000Y-124460000D03*
%TO.P,U4,2*%
%TO.N,Net-(U4-Pad2)*%
X178535000Y-124460000D03*
%TO.P,U4,3*%
X181075000Y-124460000D03*
%TO.P,U4,4*%
%TO.N,Net-(U4-Pad4)*%
X183615000Y-124460000D03*
%TO.P,U4,5*%
%TO.N,GND*%
X183615000Y-85540000D03*
%TO.P,U4,6*%
%TO.N,Net-(J2-Pad2)*%
X181075000Y-85540000D03*
%TO.P,U4,7*%
%TO.N,Net-(J2-Pad3)*%
X178535000Y-85540000D03*
%TO.P,U4,8*%
%TO.N,Net-(C4-Pad1)*%
X175995000Y-85540000D03*
%TD*%
D11*
%TO.P,C2,1*%
%TO.N,Net-(C2-Pad1)*%
X172720000Y-70485000D03*
%TO.P,C2,2*%
%TO.N,GND*%
X172720000Y-75485000D03*
%TD*%
%TO.P,C1,1*%
%TO.N,Net-(C1-Pad1)*%
X151130000Y-70485000D03*
%TO.P,C1,2*%
%TO.N,GND*%
X151130000Y-75485000D03*
%TD*%
%TO.P,C3,2*%
%TO.N,GND*%
X157607000Y-70311000D03*
%TO.P,C3,1*%
%TO.N,Net-(C1-Pad1)*%
X157607000Y-75311000D03*
%TD*%
%TO.P,J1,1*%
%TO.N,Net-(C2-Pad1)*%
%TA.AperFunction,ComponentPad*%
G36*
G01*
X178760000Y-74190000D02*
X178760000Y-70590000D01*
G75*
G02*
X179010000Y-70340000I250000J0D01*
G01*
X181670000Y-70340000D01*
G75*
G02*
X181920000Y-70590000I0J-250000D01*
G01*
X181920000Y-74190000D01*
G75*
G02*
X181670000Y-74440000I-250000J0D01*
G01*
X179010000Y-74440000D01*
G75*
G02*
X178760000Y-74190000I0J250000D01*
G01*
G37*
%TD.AperFunction*%
D13*
%TO.P,J1,2*%
%TO.N,GND*%
X184300000Y-72390000D03*
%TD*%
%TO.P,J2,4*%
%TO.N,Net-(C1-Pad1)*%
X166820000Y-88900000D03*
%TO.P,J2,3*%
%TO.N,Net-(J2-Pad3)*%
X162860000Y-88900000D03*
%TO.P,J2,2*%
%TO.N,Net-(J2-Pad2)*%
X158900000Y-88900000D03*
%TO.P,J2,1*%
%TO.N,GND*%
%TA.AperFunction,ComponentPad*%
G36*
G01*
X153360000Y-90700000D02*
X153360000Y-87100000D01*
G75*
G02*
X153610000Y-86850000I250000J0D01*
G01*
X156270000Y-86850000D01*
G75*
G02*
X156520000Y-87100000I0J-250000D01*
G01*
X156520000Y-90700000D01*
G75*
G02*
X156270000Y-90950000I-250000J0D01*
G01*
X153610000Y-90950000D01*
G75*
G02*
X153360000Y-90700000I0J250000D01*
G01*
G37*
%TD.AperFunction*%
%TD*%
%TO.P,J3,1*%
%TO.N,GND*%
%TA.AperFunction,ComponentPad*%
G36*
G01*
X153360000Y-111020000D02*
X153360000Y-107420000D01*
G75*
G02*
X153610000Y-107170000I250000J0D01*
G01*
X156270000Y-107170000D01*
G75*
G02*
X156520000Y-107420000I0J-250000D01*
G01*
X156520000Y-111020000D01*
G75*
G02*
X156270000Y-111270000I-250000J0D01*
G01*
X153610000Y-111270000D01*
G75*
G02*
X153360000Y-111020000I0J250000D01*
G01*
G37*
%TD.AperFunction*%
%TO.P,J3,2*%
%TO.N,Net-(J2-Pad2)*%
X158900000Y-109220000D03*
%TO.P,J3,3*%
%TO.N,Net-(J2-Pad3)*%
X162860000Y-109220000D03*
%TO.P,J3,4*%
%TO.N,Net-(C1-Pad1)*%
X166820000Y-109220000D03*
%TD*%
D14*
%TO.P,U1,1*%
%TO.N,Net-(C2-Pad1)*%
X164465000Y-70485000D03*
D15*
%TO.P,U1,2*%
%TO.N,GND*%
X164465000Y-73025000D03*
%TO.P,U1,3*%
%TO.N,Net-(C1-Pad1)*%
X164465000Y-75565000D03*
%TD*%
%TO.P,U2,3*%
%TO.N,Net-(C4-Pad1)*%
X142875000Y-75565000D03*
%TO.P,U2,2*%
%TO.N,GND*%
X142875000Y-73025000D03*
D14*
%TO.P,U2,1*%
%TO.N,Net-(C1-Pad1)*%
X142875000Y-70485000D03*
%TD*%
D12*
%TO.P,U3,8*%
%TO.N,Net-(C4-Pad1)*%
X137895000Y-85540000D03*
%TO.P,U3,7*%
%TO.N,Net-(J2-Pad3)*%
X140435000Y-85540000D03*
%TO.P,U3,6*%
%TO.N,Net-(J2-Pad2)*%
X142975000Y-85540000D03*
%TO.P,U3,5*%
%TO.N,GND*%
X145515000Y-85540000D03*
%TO.P,U3,4*%
%TO.N,Net-(U3-Pad4)*%
X145515000Y-124460000D03*
%TO.P,U3,3*%
%TO.N,Net-(U3-Pad2)*%
X142975000Y-124460000D03*
%TO.P,U3,2*%
X140435000Y-124460000D03*
%TO.P,U3,1*%
%TO.N,Net-(U3-Pad1)*%
X137895000Y-124460000D03*
%TD*%
%TO.P,U5,5V*%
%TO.N,Net-(C4-Pad1)*%
X125720000Y-101090000D03*
%TO.P,U5,GND*%
%TO.N,GND*%
X125720000Y-98550000D03*
%TO.P,U5,3.3V*%
%TO.N,Net-(U5-Pad3.3V)*%
X125720000Y-96010000D03*
%TO.P,U5,GND*%
%TO.N,GND*%
X125720000Y-93470000D03*
%TO.P,U5,26*%
%TO.N,Net-(U5-Pad26)*%
X125720000Y-90930000D03*
%TO.P,U5,LoRa1*%
%TO.N,Net-(U5-PadLoRa1)*%
X125720000Y-88390000D03*
%TO.P,U5,LoRa2*%
%TO.N,Net-(U5-PadLoRa2)*%
X125720000Y-85850000D03*
%TO.P,U5,19*%
%TO.N,Net-(U5-Pad19)*%
X125720000Y-83310000D03*
%TO.P,U5,23*%
%TO.N,Net-(U5-Pad23)*%
X125720000Y-80770000D03*
%TO.P,U5,22*%
%TO.N,Net-(U5-Pad22)*%
X125720000Y-78230000D03*
%TO.P,U5,RX0*%
%TO.N,Net-(U3-Pad1)*%
X125720000Y-75690000D03*
%TO.P,U5,TX0*%
%TO.N,Net-(U4-Pad4)*%
X125720000Y-73150000D03*
%TO.P,U5,21*%
%TO.N,Net-(U5-Pad21)*%
X125720000Y-70580000D03*
%TO.P,U5,25*%
%TO.N,Net-(U5-Pad25)*%
X103470000Y-101090000D03*
%TO.P,U5,4*%
%TO.N,Net-(U5-Pad4)*%
X103470000Y-98550000D03*
%TO.P,U5,0*%
%TO.N,Net-(U5-Pad0)*%
X103470000Y-96010000D03*
%TO.P,U5,2*%
%TO.N,Net-(U5-Pad2)*%
X103470000Y-93470000D03*
%TO.P,U5,15*%
%TO.N,Net-(U5-Pad15)*%
X103470000Y-90930000D03*
%TO.P,U5,13*%
%TO.N,Net-(U3-Pad2)*%
X103470000Y-88390000D03*
%TO.P,U5,12*%
%TO.N,Net-(U4-Pad2)*%
X103470000Y-85850000D03*
%TO.P,U5,14*%
%TO.N,Net-(U5-Pad14)*%
X103470000Y-83310000D03*
%TO.P,U5,35*%
%TO.N,Net-(U5-Pad35)*%
X103470000Y-80770000D03*
%TO.P,U5,34*%
%TO.N,Net-(U5-Pad34)*%
X103470000Y-78230000D03*
%TO.P,U5,RST*%
%TO.N,Net-(U5-PadRST)*%
X103470000Y-75690000D03*
%TO.P,U5,39*%
%TO.N,Net-(U5-Pad39)*%
X103470000Y-73150000D03*
%TO.P,U5,36*%
%TO.N,Net-(U5-Pad36)*%
X103470000Y-70580000D03*
%TD*%
D16*
%TO.N,*%
X101600000Y-131445000D03*
X188023500Y-130873500D03*
X188658500Y-58547000D03*
X101600000Y-59055000D03*
%TD*%
D17*
%TO.N,GND*%
X184300000Y-72390000D02*
X184300000Y-75415000D01*
X184300000Y-75415000D02*
X182880000Y-76835000D01*
X182880000Y-76835000D02*
X173990000Y-76835000D01*
X172720000Y-75565000D02*
X172720000Y-75485000D01*
X173990000Y-76835000D02*
X172720000Y-75565000D01*
X172720000Y-75485000D02*
X171450000Y-74215000D01*
X171450000Y-74215000D02*
X171450000Y-73660000D01*
X170815000Y-73025000D02*
X164465000Y-73025000D01*
X171450000Y-73660000D02*
X170815000Y-73025000D01*
X157607000Y-70311000D02*
X161116000Y-70311000D01*
X161116000Y-70311000D02*
X161925000Y-71120000D01*
X161925000Y-71120000D02*
X161925000Y-72390000D01*
X162560000Y-73025000D02*
X164465000Y-73025000D01*
X161925000Y-72390000D02*
X162560000Y-73025000D01*
X142875000Y-73025000D02*
X141605000Y-73025000D01*
X141605000Y-73025000D02*
X140335000Y-71755000D01*
X140335000Y-71755000D02*
X140335000Y-69850000D01*
X140335000Y-69850000D02*
X142875000Y-67310000D01*
X142875000Y-67310000D02*
X156210000Y-67310000D01*
X157607000Y-68707000D02*
X157607000Y-70311000D01*
X156210000Y-67310000D02*
X157607000Y-68707000D01*
X151130000Y-75485000D02*
X152480000Y-75485000D01*
X152480000Y-75485000D02*
X154305000Y-73660000D01*
X154305000Y-73660000D02*
X155575000Y-73660000D01*
X157607000Y-71628000D02*
X157607000Y-70311000D01*
X155575000Y-73660000D02*
X157607000Y-71628000D01*
X142875000Y-73025000D02*
X145415000Y-73025000D01*
X145415000Y-73025000D02*
X147320000Y-74930000D01*
X147320000Y-74930000D02*
X147320000Y-77470000D01*
X147320000Y-77470000D02*
X146050000Y-78740000D01*
X139018000Y-78740000D02*
X136017000Y-75739000D01*
X146050000Y-78740000D02*
X139018000Y-78740000D01*
X145515000Y-85540000D02*
X145515000Y-79275000D01*
X145515000Y-79275000D02*
X146050000Y-78740000D01*
X154940000Y-88900000D02*
X154940000Y-109220000D01*
X145515000Y-85540000D02*
X143510000Y-83535000D01*
X143510000Y-83535000D02*
X139985000Y-83535000D01*
X139985000Y-83535000D02*
X139065000Y-84455000D01*
X131610762Y-93470000D02*
X125720000Y-93470000D01*
X139065000Y-86015762D02*
X131610762Y-93470000D01*
X139065000Y-84455000D02*
X139065000Y-86015762D01*
X182880000Y-76835000D02*
X182880000Y-78105000D01*
X183615000Y-78840000D02*
X183615000Y-85540000D01*
X182880000Y-78105000D02*
X183615000Y-78840000D01*
X139007001Y-93287001D02*
X154940000Y-109220000D01*
X139007001Y-85006239D02*
X139007001Y-93287001D01*
X144225010Y-79788230D02*
X139007001Y-85006239D01*
X144225010Y-75025483D02*
X144225010Y-79788230D01*
X133538881Y-69588999D02*
X138788526Y-69588999D01*
X132214990Y-70912890D02*
X133538881Y-69588999D01*
X132214990Y-81707890D02*
X132214990Y-70912890D01*
X129184881Y-84737999D02*
X132214990Y-81707890D01*
X125186239Y-84737999D02*
X129184881Y-84737999D01*
X123959990Y-85964248D02*
X125186239Y-84737999D01*
X129332890Y-116705010D02*
X123959990Y-111332110D01*
X172292110Y-116705010D02*
X129332890Y-116705010D01*
X123959990Y-111332110D02*
X123959990Y-85964248D01*
X183615000Y-105382120D02*
X172292110Y-116705010D01*
X138788526Y-69588999D02*
X144225010Y-75025483D01*
X183615000Y-85540000D02*
X183615000Y-105382120D01*
X125720000Y-93470000D02*
X128270000Y-96020000D01*
X128270000Y-96020000D02*
X128270000Y-97790000D01*
X127510000Y-98550000D02*
X125720000Y-98550000D01*
X128270000Y-97790000D02*
X127510000Y-98550000D01*
%TO.N,Net-(C1-Pad1)*%
X164465000Y-75565000D02*
X162560000Y-75565000D01*
X162560000Y-75565000D02*
X161290000Y-74295000D01*
X158623000Y-74295000D02*
X157607000Y-75311000D01*
X161290000Y-74295000D02*
X158623000Y-74295000D01*
X157607000Y-75311000D02*
X157607000Y-76962000D01*
X157607000Y-76962000D02*
X160020000Y-79375000D01*
X160020000Y-79375000D02*
X165100000Y-79375000D01*
X166820000Y-81095000D02*
X166820000Y-88900000D01*
X165100000Y-79375000D02*
X166820000Y-81095000D01*
X157607000Y-75311000D02*
X156718000Y-76200000D01*
X156718000Y-76200000D02*
X154305000Y-76200000D01*
X154305000Y-76200000D02*
X153035000Y-77470000D01*
X153035000Y-77470000D02*
X150495000Y-77470000D01*
X150495000Y-77470000D02*
X149225000Y-76200000D01*
X149225000Y-72390000D02*
X151130000Y-70485000D01*
X149225000Y-76200000D02*
X149225000Y-72390000D01*
X142875000Y-70485000D02*
X151130000Y-70485000D01*
X166820000Y-109220000D02*
X166820000Y-88900000D01*
%TO.N,Net-(C2-Pad1)*%
X180340000Y-72390000D02*
X175895000Y-72390000D01*
X173990000Y-70485000D02*
X172720000Y-70485000D01*
X175895000Y-72390000D02*
X173990000Y-70485000D01*
X172720000Y-70485000D02*
X164465000Y-70485000D01*
%TO.N,Net-(C4-Pad1)*%
X142875000Y-75565000D02*
X140335000Y-75565000D01*
X140335000Y-75565000D02*
X139065000Y-74295000D01*
X139065000Y-74295000D02*
X139065000Y-71755000D01*
X138049000Y-70739000D02*
X136017000Y-70739000D01*
X139065000Y-71755000D02*
X138049000Y-70739000D01*
X136017000Y-70739000D02*
X133096000Y-70739000D01*
X133096000Y-70739000D02*
X132715000Y-71120000D01*
X132715000Y-71120000D02*
X132715000Y-81915000D01*
X132715000Y-81915000D02*
X133985000Y-83185000D01*
X135540000Y-83185000D02*
X137895000Y-85540000D01*
X133985000Y-83185000D02*
X135540000Y-83185000D01*
X125720000Y-101090000D02*
X124585000Y-101090000D01*
X124585000Y-101090000D02*
X124460000Y-100965000D01*
X127667999Y-86962001D02*
X132715000Y-81915000D01*
X125502237Y-86962001D02*
X127667999Y-86962001D01*
X124460000Y-88004238D02*
X125502237Y-86962001D01*
X124460000Y-100965000D02*
X124460000Y-88004238D01*
X175995000Y-103244446D02*
X175895000Y-103344446D01*
X175995000Y-85540000D02*
X175995000Y-103244446D01*
X175895000Y-103344446D02*
X175895000Y-112395000D01*
X175895000Y-112395000D02*
X172085000Y-116205000D01*
X172085000Y-116205000D02*
X129540000Y-116205000D01*
X125720000Y-112385000D02*
X125720000Y-101090000D01*
X129540000Y-116205000D02*
X125720000Y-112385000D01*
%TO.N,Net-(J2-Pad3)*%
X140435000Y-85540000D02*
X140435000Y-85625000D01*
X175461239Y-84427999D02*
X173355000Y-86534238D01*
X177422999Y-84427999D02*
X175461239Y-84427999D01*
X178535000Y-85540000D02*
X177422999Y-84427999D01*
X173355000Y-86534238D02*
X173355000Y-110490000D01*
X173355000Y-110490000D02*
X169545000Y-114300000D01*
X169545000Y-114300000D02*
X163830000Y-114300000D01*
X162860000Y-113330000D02*
X162860000Y-109220000D01*
X163830000Y-114300000D02*
X162860000Y-113330000D01*
X162860000Y-88900000D02*
X162860000Y-86660000D01*
X162860000Y-86660000D02*
X161290000Y-85090000D01*
X161290000Y-85090000D02*
X152400000Y-85090000D01*
X152400000Y-85090000D02*
X147955000Y-89535000D01*
X147955000Y-89535000D02*
X141605000Y-89535000D01*
X140435000Y-88365000D02*
X140435000Y-85540000D01*
X141605000Y-89535000D02*
X140435000Y-88365000D01*
X160459990Y-86499990D02*
X162860000Y-88900000D01*
X157975010Y-86499990D02*
X160459990Y-86499990D01*
X156969990Y-111249990D02*
X156969990Y-87505010D01*
X156969990Y-87505010D02*
X157975010Y-86499990D01*
X160459990Y-111620010D02*
X157340010Y-111620010D01*
X157340010Y-111620010D02*
X156969990Y-111249990D01*
X162860000Y-109220000D02*
X160459990Y-111620010D01*
%TO.N,Net-(J2-Pad2)*%
X158900000Y-109220000D02*
X158900000Y-88900000D01*
X163659436Y-91300010D02*
X161300010Y-91300010D01*
X164790010Y-90169436D02*
X163659436Y-91300010D01*
X164790010Y-87630564D02*
X164790010Y-90169436D01*
X161749438Y-84589992D02*
X164790010Y-87630564D01*
X152192888Y-84589992D02*
X161749438Y-84589992D01*
X150130879Y-86652001D02*
X152192888Y-84589992D01*
X161300010Y-91300010D02*
X158900000Y-88900000D01*
X144087001Y-86652001D02*
X150130879Y-86652001D01*
X142975000Y-85540000D02*
X144087001Y-86652001D01*
X166020564Y-111620010D02*
X167619436Y-111620010D01*
X167619436Y-111620010D02*
X170815000Y-108424446D01*
X164889990Y-110489436D02*
X166020564Y-111620010D01*
X164889990Y-108050544D02*
X164889990Y-110489436D01*
X163659436Y-106819990D02*
X164889990Y-108050544D01*
X161300010Y-106819990D02*
X163659436Y-106819990D01*
X158900000Y-109220000D02*
X161300010Y-106819990D01*
X170815000Y-88367118D02*
X171450000Y-87732118D01*
X170815000Y-108424446D02*
X170815000Y-88367118D01*
X171450000Y-87732118D02*
X171450000Y-85725000D01*
X171450000Y-85725000D02*
X174625000Y-82550000D01*
X174625000Y-82550000D02*
X179070000Y-82550000D01*
X181075000Y-84555000D02*
X181075000Y-85540000D01*
X179070000Y-82550000D02*
X181075000Y-84555000D01*
%TO.N,Net-(U3-Pad1)*%
X137895000Y-124460000D02*
X127000000Y-124460000D01*
X127000000Y-124460000D02*
X121920000Y-119380000D01*
X121920000Y-119380000D02*
X121920000Y-78105000D01*
X124335000Y-75690000D02*
X125720000Y-75690000D01*
X121920000Y-78105000D02*
X124335000Y-75690000D01*
%TO.N,Net-(U3-Pad2)*%
X140435000Y-124460000D02*
X142975000Y-124460000D01*
X139322999Y-125572001D02*
X125572001Y-125572001D01*
X140435000Y-124460000D02*
X139322999Y-125572001D01*
X125572001Y-125572001D02*
X119380000Y-119380000D01*
X119380000Y-119380000D02*
X119380000Y-86360000D01*
X117442001Y-84422001D02*
X102202001Y-84422001D01*
X119380000Y-86360000D02*
X117442001Y-84422001D01*
X102202001Y-84422001D02*
X101600000Y-85024002D01*
X101600000Y-86520000D02*
X103470000Y-88390000D01*
X101600000Y-85024002D02*
X101600000Y-86520000D01*
%TO.N,Net-(U4-Pad2)*%
X181075000Y-124460000D02*
X178535000Y-124460000D01*
X178535000Y-124460000D02*
X175995000Y-127000000D01*
X175995000Y-127000000D02*
X124460000Y-127000000D01*
X124460000Y-127000000D02*
X116840000Y-119380000D01*
X116840000Y-119380000D02*
X116840000Y-88900000D01*
X113790000Y-85850000D02*
X103470000Y-85850000D01*
X116840000Y-88900000D02*
X113790000Y-85850000D01*
%TO.N,Net-(U4-Pad4)*%
X126832001Y-78763761D02*
X126832001Y-74262001D01*
X126253761Y-79342001D02*
X126832001Y-78763761D01*
X123459982Y-81384256D02*
X125502237Y-79342001D01*
X126832001Y-74262001D02*
X125720000Y-73150000D01*
X123459982Y-111539222D02*
X123459982Y-81384256D01*
X129125780Y-117205020D02*
X123459982Y-111539222D01*
X176360020Y-117205020D02*
X129125780Y-117205020D01*
X125502237Y-79342001D02*
X126253761Y-79342001D01*
X183615000Y-124460000D02*
X176360020Y-117205020D01*
%TD*%
D18*
%TO.N,GND*%
X190436500Y-57913728D02*
X190328966Y-57654118D01*
X190122675Y-57345382D01*
X189860118Y-57082825D01*
X189551382Y-56876534D01*
X189208334Y-56734439D01*
X188844156Y-56662000D01*
X188472844Y-56662000D01*
X188108666Y-56734439D01*
X187765618Y-56876534D01*
X187456882Y-57082825D01*
X187194325Y-57345382D01*
X186988034Y-57654118D01*
X186845939Y-57997166D01*
X186773500Y-58361344D01*
X186773500Y-58732656D01*
X186845939Y-59096834D01*
X186988034Y-59439882D01*
X187194325Y-59748618D01*
X187456882Y-60011175D01*
X187765618Y-60217466D01*
X188108666Y-60359561D01*
X188472844Y-60432000D01*
X188844156Y-60432000D01*
X189208334Y-60359561D01*
X189551382Y-60217466D01*
X189860118Y-60011175D01*
X190122675Y-59748618D01*
X190328966Y-59439882D01*
X190436500Y-59180272D01*
X190436500Y-134493000D01*
X99187000Y-134493000D01*
X99187000Y-131259344D01*
X99715000Y-131259344D01*
X99715000Y-131630656D01*
X99787439Y-131994834D01*
X99929534Y-132337882D01*
X100135825Y-132646618D01*
X100398382Y-132909175D01*
X100707118Y-133115466D01*
X101050166Y-133257561D01*
X101414344Y-133330000D01*
X101785656Y-133330000D01*
X102149834Y-133257561D01*
X102492882Y-133115466D01*
X102801618Y-132909175D01*
X103064175Y-132646618D01*
X103270466Y-132337882D01*
X103412561Y-131994834D01*
X103485000Y-131630656D01*
X103485000Y-131259344D01*
X103412561Y-130895166D01*
X103326686Y-130687844D01*
X186138500Y-130687844D01*
X186138500Y-131059156D01*
X186210939Y-131423334D01*
X186353034Y-131766382D01*
X186559325Y-132075118D01*
X186821882Y-132337675D01*
X187130618Y-132543966D01*
X187473666Y-132686061D01*
X187837844Y-132758500D01*
X188209156Y-132758500D01*
X188573334Y-132686061D01*
X188916382Y-132543966D01*
X189225118Y-132337675D01*
X189487675Y-132075118D01*
X189693966Y-131766382D01*
X189836061Y-131423334D01*
X189908500Y-131059156D01*
X189908500Y-130687844D01*
X189836061Y-130323666D01*
X189693966Y-129980618D01*
X189487675Y-129671882D01*
X189225118Y-129409325D01*
X188916382Y-129203034D01*
X188573334Y-129060939D01*
X188209156Y-128988500D01*
X187837844Y-128988500D01*
X187473666Y-129060939D01*
X187130618Y-129203034D01*
X186821882Y-129409325D01*
X186559325Y-129671882D01*
X186353034Y-129980618D01*
X186210939Y-130323666D01*
X186138500Y-130687844D01*
X103326686Y-130687844D01*
X103270466Y-130552118D01*
X103064175Y-130243382D01*
X102801618Y-129980825D01*
X102492882Y-129774534D01*
X102149834Y-129632439D01*
X101785656Y-129560000D01*
X101414344Y-129560000D01*
X101050166Y-129632439D01*
X100707118Y-129774534D01*
X100398382Y-129980825D01*
X100135825Y-130243382D01*
X99929534Y-130552118D01*
X99787439Y-130895166D01*
X99715000Y-131259344D01*
X99187000Y-131259344D01*
X99187000Y-85024002D01*
X100811203Y-85024002D01*
X100815000Y-85062555D01*
X100815001Y-86481438D01*
X100811203Y-86520000D01*
X100826359Y-86673886D01*
X100871246Y-86821859D01*
X100886288Y-86850000D01*
X100944139Y-86958233D01*
X100972672Y-86993000D01*
X101017655Y-87047812D01*
X101017659Y-87047816D01*
X101042237Y-87077764D01*
X101072185Y-87102342D01*
X102097762Y-88127920D01*
X102073000Y-88252408D01*
X102073000Y-88527592D01*
X102126686Y-88797490D01*
X102231995Y-89051727D01*
X102384880Y-89280535D01*
X102579465Y-89475120D01*
X102808273Y-89628005D01*
X102885515Y-89660000D01*
X102808273Y-89691995D01*
X102579465Y-89844880D01*
X102384880Y-90039465D01*
X102231995Y-90268273D01*
X102126686Y-90522510D01*
X102073000Y-90792408D01*
X102073000Y-91067592D01*
X102126686Y-91337490D01*
X102231995Y-91591727D01*
X102384880Y-91820535D01*
X102579465Y-92015120D01*
X102808273Y-92168005D01*
X102885515Y-92200000D01*
X102808273Y-92231995D01*
X102579465Y-92384880D01*
X102384880Y-92579465D01*
X102231995Y-92808273D01*
X102126686Y-93062510D01*
X102073000Y-93332408D01*
X102073000Y-93607592D01*
X102126686Y-93877490D01*
X102231995Y-94131727D01*
X102384880Y-94360535D01*
X102579465Y-94555120D01*
X102808273Y-94708005D01*
X102885515Y-94740000D01*
X102808273Y-94771995D01*
X102579465Y-94924880D01*
X102384880Y-95119465D01*
X102231995Y-95348273D01*
X102126686Y-95602510D01*
X102073000Y-95872408D01*
X102073000Y-96147592D01*
X102126686Y-96417490D01*
X102231995Y-96671727D01*
X102384880Y-96900535D01*
X102579465Y-97095120D01*
X102808273Y-97248005D01*
X102885515Y-97280000D01*
X102808273Y-97311995D01*
X102579465Y-97464880D01*
X102384880Y-97659465D01*
X102231995Y-97888273D01*
X102126686Y-98142510D01*
X102073000Y-98412408D01*
X102073000Y-98687592D01*
X102126686Y-98957490D01*
X102231995Y-99211727D01*
X102384880Y-99440535D01*
X102579465Y-99635120D01*
X102808273Y-99788005D01*
X102885515Y-99820000D01*
X102808273Y-99851995D01*
X102579465Y-100004880D01*
X102384880Y-100199465D01*
X102231995Y-100428273D01*
X102126686Y-100682510D01*
X102073000Y-100952408D01*
X102073000Y-101227592D01*
X102126686Y-101497490D01*
X102231995Y-101751727D01*
X102384880Y-101980535D01*
X102579465Y-102175120D01*
X102808273Y-102328005D01*
X103062510Y-102433314D01*
X103332408Y-102487000D01*
X103607592Y-102487000D01*
X103877490Y-102433314D01*
X104131727Y-102328005D01*
X104360535Y-102175120D01*
X104555120Y-101980535D01*
X104708005Y-101751727D01*
X104813314Y-101497490D01*
X104867000Y-101227592D01*
X104867000Y-100952408D01*
X104813314Y-100682510D01*
X104708005Y-100428273D01*
X104555120Y-100199465D01*
X104360535Y-100004880D01*
X104131727Y-99851995D01*
X104054485Y-99820000D01*
X104131727Y-99788005D01*
X104360535Y-99635120D01*
X104555120Y-99440535D01*
X104708005Y-99211727D01*
X104813314Y-98957490D01*
X104867000Y-98687592D01*
X104867000Y-98412408D01*
X104813314Y-98142510D01*
X104708005Y-97888273D01*
X104555120Y-97659465D01*
X104360535Y-97464880D01*
X104131727Y-97311995D01*
X104054485Y-97280000D01*
X104131727Y-97248005D01*
X104360535Y-97095120D01*
X104555120Y-96900535D01*
X104708005Y-96671727D01*
X104813314Y-96417490D01*
X104867000Y-96147592D01*
X104867000Y-95872408D01*
X104813314Y-95602510D01*
X104708005Y-95348273D01*
X104555120Y-95119465D01*
X104360535Y-94924880D01*
X104131727Y-94771995D01*
X104054485Y-94740000D01*
X104131727Y-94708005D01*
X104360535Y-94555120D01*
X104555120Y-94360535D01*
X104708005Y-94131727D01*
X104813314Y-93877490D01*
X104867000Y-93607592D01*
X104867000Y-93332408D01*
X104813314Y-93062510D01*
X104708005Y-92808273D01*
X104555120Y-92579465D01*
X104360535Y-92384880D01*
X104131727Y-92231995D01*
X104054485Y-92200000D01*
X104131727Y-92168005D01*
X104360535Y-92015120D01*
X104555120Y-91820535D01*
X104708005Y-91591727D01*
X104813314Y-91337490D01*
X104867000Y-91067592D01*
X104867000Y-90792408D01*
X104813314Y-90522510D01*
X104708005Y-90268273D01*
X104555120Y-90039465D01*
X104360535Y-89844880D01*
X104131727Y-89691995D01*
X104054485Y-89660000D01*
X104131727Y-89628005D01*
X104360535Y-89475120D01*
X104555120Y-89280535D01*
X104708005Y-89051727D01*
X104813314Y-88797490D01*
X104867000Y-88527592D01*
X104867000Y-88252408D01*
X104813314Y-87982510D01*
X104708005Y-87728273D01*
X104555120Y-87499465D01*
X104360535Y-87304880D01*
X104131727Y-87151995D01*
X104054485Y-87120000D01*
X104131727Y-87088005D01*
X104360535Y-86935120D01*
X104555120Y-86740535D01*
X104625636Y-86635000D01*
X113464843Y-86635000D01*
X116055001Y-89225159D01*
X116055000Y-119341447D01*
X116051203Y-119380000D01*
X116055000Y-119418553D01*
X116055000Y-119418560D01*
X116066359Y-119533886D01*
X116111246Y-119681859D01*
X116184138Y-119818232D01*
X116282236Y-119937764D01*
X116312190Y-119962347D01*
X123877658Y-127527816D01*
X123902236Y-127557764D01*
X123932184Y-127582342D01*
X123932187Y-127582345D01*
X123961559Y-127606450D01*
X124021767Y-127655862D01*
X124158140Y-127728754D01*
X124271672Y-127763194D01*
X124306112Y-127773641D01*
X124320490Y-127775057D01*
X124421439Y-127785000D01*
X124421446Y-127785000D01*
X124459999Y-127788797D01*
X124498552Y-127785000D01*
X175956447Y-127785000D01*
X175995000Y-127788797D01*
X176033553Y-127785000D01*
X176033561Y-127785000D01*
X176148887Y-127773641D01*
X176296860Y-127728754D01*
X176433233Y-127655862D01*
X176552764Y-127557764D01*
X176577347Y-127527810D01*
X178272920Y-125832238D01*
X178397408Y-125857000D01*
X178672592Y-125857000D01*
X178942490Y-125803314D01*
X179196727Y-125698005D01*
X179425535Y-125545120D01*
X179620120Y-125350535D01*
X179690636Y-125245000D01*
X179919364Y-125245000D01*
X179989880Y-125350535D01*
X180184465Y-125545120D01*
X180413273Y-125698005D01*
X180667510Y-125803314D01*
X180937408Y-125857000D01*
X181212592Y-125857000D01*
X181482490Y-125803314D01*
X181736727Y-125698005D01*
X181965535Y-125545120D01*
X182160120Y-125350535D01*
X182313005Y-125121727D01*
X182345000Y-125044485D01*
X182376995Y-125121727D01*
X182529880Y-125350535D01*
X182724465Y-125545120D01*
X182953273Y-125698005D01*
X183207510Y-125803314D01*
X183477408Y-125857000D01*
X183752592Y-125857000D01*
X184022490Y-125803314D01*
X184276727Y-125698005D01*
X184505535Y-125545120D01*
X184700120Y-125350535D01*
X184853005Y-125121727D01*
X184958314Y-124867490D01*
X185012000Y-124597592D01*
X185012000Y-124322408D01*
X184958314Y-124052510D01*
X184853005Y-123798273D01*
X184700120Y-123569465D01*
X184505535Y-123374880D01*
X184276727Y-123221995D01*
X184022490Y-123116686D01*
X183752592Y-123063000D01*
X183477408Y-123063000D01*
X183352920Y-123087762D01*
X176942367Y-116677210D01*
X176917784Y-116647256D01*
X176798253Y-116549158D01*
X176661880Y-116476266D01*
X176513907Y-116431379D01*
X176398581Y-116420020D01*
X176398573Y-116420020D01*
X176360020Y-116416223D01*
X176321467Y-116420020D01*
X172980137Y-116420020D01*
X176422810Y-112977347D01*
X176452764Y-112952764D01*
X176550862Y-112833233D01*
X176623754Y-112696860D01*
X176668642Y-112548887D01*
X176676020Y-112473974D01*
X176680000Y-112433561D01*
X176680000Y-112433556D01*
X176683797Y-112395000D01*
X176680000Y-112356444D01*
X176680000Y-103628165D01*
X176723754Y-103546306D01*
X176768641Y-103398333D01*
X176780000Y-103283007D01*
X176780000Y-103283000D01*
X176783797Y-103244447D01*
X176780000Y-103205894D01*
X176780000Y-86695636D01*
X176885535Y-86625120D01*
X177080120Y-86430535D01*
X177233005Y-86201727D01*
X177265000Y-86124485D01*
X177296995Y-86201727D01*
X177449880Y-86430535D01*
X177644465Y-86625120D01*
X177873273Y-86778005D01*
X178127510Y-86883314D01*
X178397408Y-86937000D01*
X178672592Y-86937000D01*
X178942490Y-86883314D01*
X179196727Y-86778005D01*
X179425535Y-86625120D01*
X179620120Y-86430535D01*
X179773005Y-86201727D01*
X179805000Y-86124485D01*
X179836995Y-86201727D01*
X179989880Y-86430535D01*
X180184465Y-86625120D01*
X180413273Y-86778005D01*
X180667510Y-86883314D01*
X180937408Y-86937000D01*
X181212592Y-86937000D01*
X181482490Y-86883314D01*
X181736727Y-86778005D01*
X181965535Y-86625120D01*
X182085090Y-86505565D01*
X182829040Y-86505565D01*
X182896020Y-86745656D01*
X183145048Y-86862756D01*
X183412135Y-86929023D01*
X183687017Y-86941910D01*
X183959133Y-86900922D01*
X184218023Y-86807636D01*
X184333980Y-86745656D01*
X184400960Y-86505565D01*
X183615000Y-85719605D01*
X182829040Y-86505565D01*
X182085090Y-86505565D01*
X182160120Y-86430535D01*
X182313005Y-86201727D01*
X182342692Y-86130057D01*
X182347364Y-86143023D01*
X182409344Y-86258980D01*
X182649435Y-86325960D01*
X183435395Y-85540000D01*
X183794605Y-85540000D01*
X184580565Y-86325960D01*
X184820656Y-86258980D01*
X184937756Y-86009952D01*
X185004023Y-85742865D01*
X185016910Y-85467983D01*
X184975922Y-85195867D01*
X184882636Y-84936977D01*
X184820656Y-84821020D01*
X184580565Y-84754040D01*
X183794605Y-85540000D01*
X183435395Y-85540000D01*
X182649435Y-84754040D01*
X182409344Y-84821020D01*
X182345515Y-84956760D01*
X182313005Y-84878273D01*
X182160120Y-84649465D01*
X182085090Y-84574435D01*
X182829040Y-84574435D01*
X183615000Y-85360395D01*
X184400960Y-84574435D01*
X184333980Y-84334344D01*
X184084952Y-84217244D01*
X183817865Y-84150977D01*
X183542983Y-84138090D01*
X183270867Y-84179078D01*
X183011977Y-84272364D01*
X182896020Y-84334344D01*
X182829040Y-84574435D01*
X182085090Y-84574435D01*
X181965535Y-84454880D01*
X181839381Y-84370586D01*
X181803754Y-84253140D01*
X181730862Y-84116767D01*
X181632764Y-83997236D01*
X181602817Y-83972659D01*
X179652347Y-82022190D01*
X179627764Y-81992236D01*
X179508233Y-81894138D01*
X179371860Y-81821246D01*
X179223887Y-81776359D01*
X179108561Y-81765000D01*
X179108553Y-81765000D01*
X179070000Y-81761203D01*
X179031447Y-81765000D01*
X174663552Y-81765000D01*
X174624999Y-81761203D01*
X174586446Y-81765000D01*
X174586439Y-81765000D01*
X174471113Y-81776359D01*
X174323140Y-81821246D01*
X174186767Y-81894138D01*
X174126559Y-81943550D01*
X174097187Y-81967655D01*
X174097184Y-81967658D01*
X174067236Y-81992236D01*
X174042658Y-82022184D01*
X170922185Y-85142658D01*
X170892237Y-85167236D01*
X170867659Y-85197184D01*
X170867655Y-85197188D01*
X170834690Y-85237356D01*
X170794139Y-85286767D01*
X170791216Y-85292236D01*
X170721246Y-85423141D01*
X170676359Y-85571114D01*
X170661203Y-85725000D01*
X170665001Y-85763563D01*
X170665000Y-87406961D01*
X170287185Y-87784776D01*
X170257237Y-87809354D01*
X170232659Y-87839302D01*
X170232655Y-87839306D01*
X170223591Y-87850351D01*
X170159139Y-87928885D01*
X170139474Y-87965677D01*
X170086246Y-88065259D01*
X170041359Y-88213232D01*
X170026203Y-88367118D01*
X170030001Y-88405681D01*
X170030000Y-108099288D01*
X169035000Y-109094288D01*
X169035000Y-108641190D01*
X169002950Y-108315784D01*
X168876294Y-107898255D01*
X168670616Y-107513458D01*
X168393820Y-107176180D01*
X168056542Y-106899384D01*
X167671744Y-106693706D01*
X167605000Y-106673459D01*
X167605000Y-91446541D01*
X167671745Y-91426294D01*
X168056542Y-91220616D01*
X168393820Y-90943820D01*
X168670616Y-90606542D01*
X168876294Y-90221744D01*
X169002950Y-89804215D01*
X169035000Y-89478809D01*
X169035000Y-88321190D01*
X169002950Y-87995784D01*
X168876294Y-87578255D01*
X168670616Y-87193458D01*
X168393820Y-86856180D01*
X168056542Y-86579384D01*
X167671744Y-86373706D01*
X167605000Y-86353459D01*
X167605000Y-81133552D01*
X167608797Y-81094999D01*
X167605000Y-81056446D01*
X167605000Y-81056439D01*
X167593641Y-80941113D01*
X167548754Y-80793140D01*
X167475862Y-80656767D01*
X167377764Y-80537236D01*
X167347817Y-80512659D01*
X165682347Y-78847190D01*
X165657764Y-78817236D01*
X165538233Y-78719138D01*
X165401860Y-78646246D01*
X165253887Y-78601359D01*
X165138561Y-78590000D01*
X165138553Y-78590000D01*
X165100000Y-78586203D01*
X165061447Y-78590000D01*
X160345158Y-78590000D01*
X158392000Y-76636843D01*
X158392000Y-76512339D01*
X158521759Y-76425637D01*
X158721637Y-76225759D01*
X158878680Y-75990727D01*
X158986853Y-75729574D01*
X159042000Y-75452335D01*
X159042000Y-75169665D01*
X159024164Y-75080000D01*
X160964843Y-75080000D01*
X161977658Y-76092815D01*
X162002236Y-76122764D01*
X162032184Y-76147342D01*
X162032187Y-76147345D01*
X162061559Y-76171450D01*
X162121767Y-76220862D01*
X162258140Y-76293754D01*
X162371672Y-76328194D01*
X162406112Y-76338641D01*
X162420490Y-76340057D01*
X162521439Y-76350000D01*
X162521446Y-76350000D01*
X162559999Y-76353797D01*
X162598552Y-76350000D01*
X163037044Y-76350000D01*
X163091155Y-76451235D01*
X163289537Y-76692963D01*
X163531265Y-76891345D01*
X163807051Y-77038755D01*
X164106296Y-77129530D01*
X164339514Y-77152500D01*
X164590486Y-77152500D01*
X164823704Y-77129530D01*
X165122949Y-77038755D01*
X165398735Y-76891345D01*
X165640463Y-76692963D01*
X165817123Y-76477702D01*
X171906903Y-76477702D01*
X171978486Y-76721671D01*
X172233996Y-76842571D01*
X172508184Y-76911300D01*
X172790512Y-76925217D01*
X173070130Y-76883787D01*
X173336292Y-76788603D01*
X173461514Y-76721671D01*
X173533097Y-76477702D01*
X172720000Y-75664605D01*
X171906903Y-76477702D01*
X165817123Y-76477702D01*
X165838845Y-76451235D01*
X165986255Y-76175449D01*
X166077030Y-75876204D01*
X166107681Y-75565000D01*
X166106747Y-75555512D01*
X171279783Y-75555512D01*
X171321213Y-75835130D01*
X171416397Y-76101292D01*
X171483329Y-76226514D01*
X171727298Y-76298097D01*
X172540395Y-75485000D01*
X172899605Y-75485000D01*
X173712702Y-76298097D01*
X173956671Y-76226514D01*
X174077571Y-75971004D01*
X174146300Y-75696816D01*
X174160217Y-75414488D01*
X174118787Y-75134870D01*
X174023603Y-74868708D01*
X173956671Y-74743486D01*
X173712702Y-74671903D01*
X172899605Y-75485000D01*
X172540395Y-75485000D01*
X171727298Y-74671903D01*
X171483329Y-74743486D01*
X171362429Y-74998996D01*
X171293700Y-75273184D01*
X171279783Y-75555512D01*
X166106747Y-75555512D01*
X166077030Y-75253796D01*
X165986255Y-74954551D01*
X165838845Y-74678765D01*
X165685815Y-74492298D01*
X171906903Y-74492298D01*
X172720000Y-75305395D01*
X173533097Y-74492298D01*
X173461514Y-74248329D01*
X173206004Y-74127429D01*
X172931816Y-74058700D01*
X172649488Y-74044783D01*
X172369870Y-74086213D01*
X172103708Y-74181397D01*
X171978486Y-74248329D01*
X171906903Y-74492298D01*
X165685815Y-74492298D01*
X165640463Y-74437037D01*
X165461101Y-74289837D01*
X165646315Y-74134437D01*
X165840969Y-73891923D01*
X165984571Y-73616094D01*
X166055563Y-73397980D01*
X165935594Y-73152000D01*
X164592000Y-73152000D01*
X164592000Y-73172000D01*
X164338000Y-73172000D01*
X164338000Y-73152000D01*
X162994406Y-73152000D01*
X162874437Y-73397980D01*
X162945429Y-73616094D01*
X163089031Y-73891923D01*
X163283685Y-74134437D01*
X163468899Y-74289837D01*
X163289537Y-74437037D01*
X163091155Y-74678765D01*
X163037044Y-74780000D01*
X162885158Y-74780000D01*
X161872347Y-73767190D01*
X161847764Y-73737236D01*
X161728233Y-73639138D01*
X161591860Y-73566246D01*
X161443887Y-73521359D01*
X161328561Y-73510000D01*
X161328553Y-73510000D01*
X161290000Y-73506203D01*
X161251447Y-73510000D01*
X158661555Y-73510000D01*
X158623000Y-73506203D01*
X158584444Y-73510000D01*
X158584439Y-73510000D01*
X158544026Y-73513980D01*
X158469113Y-73521358D01*
X158321140Y-73566246D01*
X158184767Y-73639138D01*
X158124559Y-73688550D01*
X158095187Y-73712655D01*
X158095184Y-73712658D01*
X158065236Y-73737236D01*
X158040657Y-73767185D01*
X157901396Y-73906446D01*
X157748335Y-73876000D01*
X157465665Y-73876000D01*
X157188426Y-73931147D01*
X156927273Y-74039320D01*
X156692241Y-74196363D01*
X156492363Y-74396241D01*
X156335320Y-74631273D01*
X156227147Y-74892426D01*
X156172000Y-75169665D01*
X156172000Y-75415000D01*
X154343552Y-75415000D01*
X154304999Y-75411203D01*
X154266446Y-75415000D01*
X154266439Y-75415000D01*
X154165490Y-75424943D01*
X154151112Y-75426359D01*
X154116672Y-75436806D01*
X154003140Y-75471246D01*
X153866767Y-75544138D01*
X153806559Y-75593550D01*
X153777187Y-75617655D01*
X153777184Y-75617658D01*
X153747236Y-75642236D01*
X153722658Y-75672185D01*
X152709843Y-76685000D01*
X151882274Y-76685000D01*
X151943097Y-76477702D01*
X151130000Y-75664605D01*
X151115858Y-75678748D01*
X150936253Y-75499143D01*
X150950395Y-75485000D01*
X151309605Y-75485000D01*
X152122702Y-76298097D01*
X152366671Y-76226514D01*
X152487571Y-75971004D01*
X152556300Y-75696816D01*
X152570217Y-75414488D01*
X152528787Y-75134870D01*
X152433603Y-74868708D01*
X152366671Y-74743486D01*
X152122702Y-74671903D01*
X151309605Y-75485000D01*
X150950395Y-75485000D01*
X150137298Y-74671903D01*
X150010000Y-74709254D01*
X150010000Y-74492298D01*
X150316903Y-74492298D01*
X151130000Y-75305395D01*
X151943097Y-74492298D01*
X151871514Y-74248329D01*
X151616004Y-74127429D01*
X151341816Y-74058700D01*
X151059488Y-74044783D01*
X150779870Y-74086213D01*
X150513708Y-74181397D01*
X150388486Y-74248329D01*
X150316903Y-74492298D01*
X150010000Y-74492298D01*
X150010000Y-72715157D01*
X150835603Y-71889554D01*
X150988665Y-71920000D01*
X151271335Y-71920000D01*
X151548574Y-71864853D01*
X151809727Y-71756680D01*
X152044759Y-71599637D01*
X152244637Y-71399759D01*
X152308820Y-71303702D01*
X156793903Y-71303702D01*
X156865486Y-71547671D01*
X157120996Y-71668571D01*
X157395184Y-71737300D01*
X157677512Y-71751217D01*
X157957130Y-71709787D01*
X158223292Y-71614603D01*
X158348514Y-71547671D01*
X158420097Y-71303702D01*
X157607000Y-70490605D01*
X156793903Y-71303702D01*
X152308820Y-71303702D01*
X152401680Y-71164727D01*
X152509853Y-70903574D01*
X152565000Y-70626335D01*
X152565000Y-70381512D01*
X156166783Y-70381512D01*
X156208213Y-70661130D01*
X156303397Y-70927292D01*
X156370329Y-71052514D01*
X156614298Y-71124097D01*
X157427395Y-70311000D01*
X157786605Y-70311000D01*
X158599702Y-71124097D01*
X158843671Y-71052514D01*
X158964571Y-70797004D01*
X159033300Y-70522816D01*
X159047217Y-70240488D01*
X159005787Y-69960870D01*
X158910603Y-69694708D01*
X158843671Y-69569486D01*
X158717616Y-69532500D01*
X162826928Y-69532500D01*
X162826928Y-71437500D01*
X162839188Y-71561982D01*
X162875498Y-71681680D01*
X162934463Y-71791994D01*
X163013815Y-71888685D01*
X163110506Y-71968037D01*
X163202219Y-72017059D01*
X163089031Y-72158077D01*
X162945429Y-72433906D01*
X162874437Y-72652020D01*
X162994406Y-72898000D01*
X164338000Y-72898000D01*
X164338000Y-72878000D01*
X164592000Y-72878000D01*
X164592000Y-72898000D01*
X165935594Y-72898000D01*
X166055563Y-72652020D01*
X165984571Y-72433906D01*
X165840969Y-72158077D01*
X165727781Y-72017059D01*
X165819494Y-71968037D01*
X165916185Y-71888685D01*
X165995537Y-71791994D01*
X166054502Y-71681680D01*
X166090812Y-71561982D01*
X166103072Y-71437500D01*
X166103072Y-71270000D01*
X171518661Y-71270000D01*
X171605363Y-71399759D01*
X171805241Y-71599637D01*
X172040273Y-71756680D01*
X172301426Y-71864853D01*
X172578665Y-71920000D01*
X172861335Y-71920000D01*
X173138574Y-71864853D01*
X173399727Y-71756680D01*
X173634759Y-71599637D01*
X173814620Y-71419777D01*
X175312653Y-72917810D01*
X175337236Y-72947764D01*
X175456767Y-73045862D01*
X175593140Y-73118754D01*
X175741113Y-73163642D01*
X175816026Y-73171020D01*
X175856439Y-73175000D01*
X175856444Y-73175000D01*
X175895000Y-73178797D01*
X175933556Y-73175000D01*
X178121928Y-73175000D01*
X178121928Y-74190000D01*
X178138992Y-74363254D01*
X178189528Y-74529850D01*
X178271595Y-74683386D01*
X178382038Y-74817962D01*
X178516614Y-74928405D01*
X178670150Y-75010472D01*
X178836746Y-75061008D01*
X179010000Y-75078072D01*
X181670000Y-75078072D01*
X181843254Y-75061008D01*
X182009850Y-75010472D01*
X182163386Y-74928405D01*
X182297962Y-74817962D01*
X182408405Y-74683386D01*
X182490472Y-74529850D01*
X182541008Y-74363254D01*
X182554700Y-74224238D01*
X182823562Y-74516044D01*
X183175009Y-74772262D01*
X183569689Y-74954993D01*
X183828631Y-75024263D01*
X184173000Y-74912324D01*
X184173000Y-72517000D01*
X184427000Y-72517000D01*
X184427000Y-74912324D01*
X184771369Y-75024263D01*
X185030311Y-74954993D01*
X185424991Y-74772262D01*
X185776438Y-74516044D01*
X186071147Y-74196185D01*
X186297792Y-73824977D01*
X186447663Y-73416685D01*
X186515000Y-72987000D01*
X186515000Y-72517000D01*
X184427000Y-72517000D01*
X184173000Y-72517000D01*
X184153000Y-72517000D01*
X184153000Y-72263000D01*
X184173000Y-72263000D01*
X184173000Y-69867676D01*
X184427000Y-69867676D01*
X184427000Y-72263000D01*
X186515000Y-72263000D01*
X186515000Y-71793000D01*
X186447663Y-71363315D01*
X186297792Y-70955023D01*
X186071147Y-70583815D01*
X185776438Y-70263956D01*
X185424991Y-70007738D01*
X185030311Y-69825007D01*
X184771369Y-69755737D01*
X184427000Y-69867676D01*
X184173000Y-69867676D01*
X183828631Y-69755737D01*
X183569689Y-69825007D01*
X183175009Y-70007738D01*
X182823562Y-70263956D01*
X182554700Y-70555762D01*
X182541008Y-70416746D01*
X182490472Y-70250150D01*
X182408405Y-70096614D01*
X182297962Y-69962038D01*
X182163386Y-69851595D01*
X182009850Y-69769528D01*
X181843254Y-69718992D01*
X181670000Y-69701928D01*
X179010000Y-69701928D01*
X178836746Y-69718992D01*
X178670150Y-69769528D01*
X178516614Y-69851595D01*
X178382038Y-69962038D01*
X178271595Y-70096614D01*
X178189528Y-70250150D01*
X178138992Y-70416746D01*
X178121928Y-70590000D01*
X178121928Y-71605000D01*
X176220157Y-71605000D01*
X174572347Y-69957190D01*
X174547764Y-69927236D01*
X174428233Y-69829138D01*
X174291860Y-69756246D01*
X174143887Y-69711359D01*
X174028561Y-69700000D01*
X174028553Y-69700000D01*
X173990000Y-69696203D01*
X173951447Y-69700000D01*
X173921339Y-69700000D01*
X173834637Y-69570241D01*
X173634759Y-69370363D01*
X173399727Y-69213320D01*
X173138574Y-69105147D01*
X172861335Y-69050000D01*
X172578665Y-69050000D01*
X172301426Y-69105147D01*
X172040273Y-69213320D01*
X171805241Y-69370363D01*
X171605363Y-69570241D01*
X171518661Y-69700000D01*
X166103072Y-69700000D01*
X166103072Y-69532500D01*
X166090812Y-69408018D01*
X166054502Y-69288320D01*
X165995537Y-69178006D01*
X165916185Y-69081315D01*
X165819494Y-69001963D01*
X165709180Y-68942998D01*
X165589482Y-68906688D01*
X165465000Y-68894428D01*
X163465000Y-68894428D01*
X163340518Y-68906688D01*
X163220820Y-68942998D01*
X163110506Y-69001963D01*
X163013815Y-69081315D01*
X162934463Y-69178006D01*
X162875498Y-69288320D01*
X162839188Y-69408018D01*
X162826928Y-69532500D01*
X158717616Y-69532500D01*
X158599702Y-69497903D01*
X157786605Y-70311000D01*
X157427395Y-70311000D01*
X156614298Y-69497903D01*
X156370329Y-69569486D01*
X156249429Y-69824996D01*
X156180700Y-70099184D01*
X156166783Y-70381512D01*
X152565000Y-70381512D01*
X152565000Y-70343665D01*
X152509853Y-70066426D01*
X152401680Y-69805273D01*
X152244637Y-69570241D01*
X152044759Y-69370363D01*
X151966839Y-69318298D01*
X156793903Y-69318298D01*
X157607000Y-70131395D01*
X158420097Y-69318298D01*
X158348514Y-69074329D01*
X158093004Y-68953429D01*
X157818816Y-68884700D01*
X157536488Y-68870783D01*
X157256870Y-68912213D01*
X156990708Y-69007397D01*
X156865486Y-69074329D01*
X156793903Y-69318298D01*
X151966839Y-69318298D01*
X151809727Y-69213320D01*
X151548574Y-69105147D01*
X151271335Y-69050000D01*
X150988665Y-69050000D01*
X150711426Y-69105147D01*
X150450273Y-69213320D01*
X150215241Y-69370363D01*
X150015363Y-69570241D01*
X149928661Y-69700000D01*
X144513072Y-69700000D01*
X144513072Y-69532500D01*
X144500812Y-69408018D01*
X144464502Y-69288320D01*
X144405537Y-69178006D01*
X144326185Y-69081315D01*
X144229494Y-69001963D01*
X144119180Y-68942998D01*
X143999482Y-68906688D01*
X143875000Y-68894428D01*
X141875000Y-68894428D01*
X141750518Y-68906688D01*
X141630820Y-68942998D01*
X141520506Y-69001963D01*
X141423815Y-69081315D01*
X141344463Y-69178006D01*
X141285498Y-69288320D01*
X141249188Y-69408018D01*
X141236928Y-69532500D01*
X141236928Y-71437500D01*
X141249188Y-71561982D01*
X141285498Y-71681680D01*
X141344463Y-71791994D01*
X141423815Y-71888685D01*
X141520506Y-71968037D01*
X141612219Y-72017059D01*
X141499031Y-72158077D01*
X141355429Y-72433906D01*
X141284437Y-72652020D01*
X141404406Y-72898000D01*
X142748000Y-72898000D01*
X142748000Y-72878000D01*
X143002000Y-72878000D01*
X143002000Y-72898000D01*
X144345594Y-72898000D01*
X144465563Y-72652020D01*
X144394571Y-72433906D01*
X144250969Y-72158077D01*
X144137781Y-72017059D01*
X144229494Y-71968037D01*
X144326185Y-71888685D01*
X144405537Y-71791994D01*
X144464502Y-71681680D01*
X144500812Y-71561982D01*
X144513072Y-71437500D01*
X144513072Y-71270000D01*
X149234843Y-71270000D01*
X148697185Y-71807658D01*
X148667237Y-71832236D01*
X148642659Y-71862184D01*
X148642655Y-71862188D01*
X148620910Y-71888685D01*
X148569139Y-71951767D01*
X148560443Y-71968037D01*
X148496246Y-72088141D01*
X148451359Y-72236114D01*
X148436203Y-72390000D01*
X148440001Y-72428563D01*
X148440000Y-76161447D01*
X148436203Y-76200000D01*
X148440000Y-76238553D01*
X148440000Y-76238560D01*
X148451359Y-76353886D01*
X148496246Y-76501859D01*
X148569138Y-76638232D01*
X148667236Y-76757764D01*
X148697188Y-76782345D01*
X149912658Y-77997815D01*
X149937236Y-78027764D01*
X149967184Y-78052342D01*
X149967187Y-78052345D01*
X149984361Y-78066439D01*
X150056767Y-78125862D01*
X150193140Y-78198754D01*
X150306672Y-78233194D01*
X150341112Y-78243641D01*
X150355490Y-78245057D01*
X150456439Y-78255000D01*
X150456446Y-78255000D01*
X150494999Y-78258797D01*
X150533552Y-78255000D01*
X152996447Y-78255000D01*
X153035000Y-78258797D01*
X153073553Y-78255000D01*
X153073561Y-78255000D01*
X153188887Y-78243641D01*
X153336860Y-78198754D01*
X153473233Y-78125862D01*
X153592764Y-78027764D01*
X153617347Y-77997810D01*
X154630158Y-76985000D01*
X156679447Y-76985000D01*
X156718000Y-76988797D01*
X156756553Y-76985000D01*
X156756561Y-76985000D01*
X156819854Y-76978766D01*
X156833359Y-77115886D01*
X156878246Y-77263859D01*
X156878247Y-77263860D01*
X156951139Y-77400233D01*
X156991275Y-77449138D01*
X157024655Y-77489812D01*
X157024659Y-77489816D01*
X157049237Y-77519764D01*
X157079185Y-77544342D01*
X159437658Y-79902816D01*
X159462236Y-79932764D01*
X159492184Y-79957342D01*
X159492187Y-79957345D01*
X159521559Y-79981450D01*
X159581767Y-80030862D01*
X159718140Y-80103754D01*
X159831672Y-80138194D01*
X159866112Y-80148641D01*
X159880490Y-80150057D01*
X159981439Y-80160000D01*
X159981446Y-80160000D01*
X160019999Y-80163797D01*
X160058552Y-80160000D01*
X164774843Y-80160000D01*
X166035000Y-81420158D01*
X166035001Y-86353459D01*
X165968255Y-86373706D01*
X165583458Y-86579384D01*
X165246180Y-86856180D01*
X165191911Y-86922307D01*
X162331785Y-84062182D01*
X162307202Y-84032228D01*
X162187671Y-83934130D01*
X162051298Y-83861238D01*
X161903325Y-83816351D01*
X161787999Y-83804992D01*
X161787991Y-83804992D01*
X161749438Y-83801195D01*
X161710885Y-83804992D01*
X152231440Y-83804992D01*
X152192887Y-83801195D01*
X152154334Y-83804992D01*
X152154327Y-83804992D01*
X152053378Y-83814935D01*
X152039000Y-83816351D01*
X151891028Y-83861238D01*
X151754655Y-83934130D01*
X151694447Y-83983542D01*
X151665075Y-84007647D01*
X151665072Y-84007650D01*
X151635124Y-84032228D01*
X151610546Y-84062176D01*
X149805722Y-85867001D01*
X146873224Y-85867001D01*
X146904023Y-85742865D01*
X146916910Y-85467983D01*
X146875922Y-85195867D01*
X146782636Y-84936977D01*
X146720656Y-84821020D01*
X146480565Y-84754040D01*
X145694605Y-85540000D01*
X145708748Y-85554143D01*
X145529143Y-85733748D01*
X145515000Y-85719605D01*
X145500858Y-85733748D01*
X145321253Y-85554143D01*
X145335395Y-85540000D01*
X144549435Y-84754040D01*
X144309344Y-84821020D01*
X144245515Y-84956760D01*
X144213005Y-84878273D01*
X144060120Y-84649465D01*
X143985090Y-84574435D01*
X144729040Y-84574435D01*
X145515000Y-85360395D01*
X146300960Y-84574435D01*
X146233980Y-84334344D01*
X145984952Y-84217244D01*
X145717865Y-84150977D01*
X145442983Y-84138090D01*
X145170867Y-84179078D01*
X144911977Y-84272364D01*
X144796020Y-84334344D01*
X144729040Y-84574435D01*
X143985090Y-84574435D01*
X143865535Y-84454880D01*
X143636727Y-84301995D01*
X143382490Y-84196686D01*
X143112592Y-84143000D01*
X142837408Y-84143000D01*
X142567510Y-84196686D01*
X142313273Y-84301995D01*
X142084465Y-84454880D01*
X141889880Y-84649465D01*
X141736995Y-84878273D01*
X141705000Y-84955515D01*
X141673005Y-84878273D01*
X141520120Y-84649465D01*
X141325535Y-84454880D01*
X141096727Y-84301995D01*
X140842490Y-84196686D01*
X140572592Y-84143000D01*
X140297408Y-84143000D01*
X140027510Y-84196686D01*
X139773273Y-84301995D01*
X139544465Y-84454880D01*
X139349880Y-84649465D01*
X139196995Y-84878273D01*
X139165000Y-84955515D01*
X139133005Y-84878273D01*
X138980120Y-84649465D01*
X138785535Y-84454880D01*
X138556727Y-84301995D01*
X138302490Y-84196686D01*
X138032592Y-84143000D01*
X137757408Y-84143000D01*
X137632920Y-84167762D01*
X136122347Y-82657190D01*
X136097764Y-82627236D01*
X135978233Y-82529138D01*
X135841860Y-82456246D01*
X135693887Y-82411359D01*
X135578561Y-82400000D01*
X135578553Y-82400000D01*
X135540000Y-82396203D01*
X135501447Y-82400000D01*
X134310158Y-82400000D01*
X133500000Y-81589843D01*
X133500000Y-76731702D01*
X135203903Y-76731702D01*
X135275486Y-76975671D01*
X135530996Y-77096571D01*
X135805184Y-77165300D01*
X136087512Y-77179217D01*
X136367130Y-77137787D01*
X136633292Y-77042603D01*
X136758514Y-76975671D01*
X136830097Y-76731702D01*
X136017000Y-75918605D01*
X135203903Y-76731702D01*
X133500000Y-76731702D01*
X133500000Y-75809512D01*
X134576783Y-75809512D01*
X134618213Y-76089130D01*
X134713397Y-76355292D01*
X134780329Y-76480514D01*
X135024298Y-76552097D01*
X135837395Y-75739000D01*
X136196605Y-75739000D01*
X137009702Y-76552097D01*
X137253671Y-76480514D01*
X137374571Y-76225004D01*
X137443300Y-75950816D01*
X137457217Y-75668488D01*
X137415787Y-75388870D01*
X137320603Y-75122708D01*
X137253671Y-74997486D01*
X137009702Y-74925903D01*
X136196605Y-75739000D01*
X135837395Y-75739000D01*
X135024298Y-74925903D01*
X134780329Y-74997486D01*
X134659429Y-75252996D01*
X134590700Y-75527184D01*
X134576783Y-75809512D01*
X133500000Y-75809512D01*
X133500000Y-74746298D01*
X135203903Y-74746298D01*
X136017000Y-75559395D01*
X136830097Y-74746298D01*
X136758514Y-74502329D01*
X136503004Y-74381429D01*
X136228816Y-74312700D01*
X135946488Y-74298783D01*
X135666870Y-74340213D01*
X135400708Y-74435397D01*
X135275486Y-74502329D01*
X135203903Y-74746298D01*
X133500000Y-74746298D01*
X133500000Y-71524000D01*
X134815661Y-71524000D01*
X134902363Y-71653759D01*
X135102241Y-71853637D01*
X135337273Y-72010680D01*
X135598426Y-72118853D01*
X135875665Y-72174000D01*
X136158335Y-72174000D01*
X136435574Y-72118853D01*
X136696727Y-72010680D01*
X136931759Y-71853637D01*
X137131637Y-71653759D01*
X137218339Y-71524000D01*
X137723843Y-71524000D01*
X138280001Y-72080159D01*
X138280000Y-74256447D01*
X138276203Y-74295000D01*
X138280000Y-74333553D01*
X138280000Y-74333560D01*
X138291359Y-74448886D01*
X138336246Y-74596859D01*
X138409138Y-74733232D01*
X138507236Y-74852764D01*
X138537190Y-74877347D01*
X139752658Y-76092815D01*
X139777236Y-76122764D01*
X139807184Y-76147342D01*
X139807187Y-76147345D01*
X139836559Y-76171450D01*
X139896767Y-76220862D01*
X140033140Y-76293754D01*
X140146672Y-76328194D01*
X140181112Y-76338641D01*
X140195490Y-76340057D01*
X140296439Y-76350000D01*
X140296446Y-76350000D01*
X140334999Y-76353797D01*
X140373552Y-76350000D01*
X141447044Y-76350000D01*
X141501155Y-76451235D01*
X141699537Y-76692963D01*
X141941265Y-76891345D01*
X142217051Y-77038755D01*
X142516296Y-77129530D01*
X142749514Y-77152500D01*
X143000486Y-77152500D01*
X143233704Y-77129530D01*
X143532949Y-77038755D01*
X143808735Y-76891345D01*
X144050463Y-76692963D01*
X144248845Y-76451235D01*
X144396255Y-76175449D01*
X144487030Y-75876204D01*
X144517681Y-75565000D01*
X144487030Y-75253796D01*
X144396255Y-74954551D01*
X144248845Y-74678765D01*
X144050463Y-74437037D01*
X143871101Y-74289837D01*
X144056315Y-74134437D01*
X144250969Y-73891923D01*
X144394571Y-73616094D01*
X144465563Y-73397980D01*
X144345594Y-73152000D01*
X143002000Y-73152000D01*
X143002000Y-73172000D01*
X142748000Y-73172000D01*
X142748000Y-73152000D01*
X141404406Y-73152000D01*
X141284437Y-73397980D01*
X141355429Y-73616094D01*
X141499031Y-73891923D01*
X141693685Y-74134437D01*
X141878899Y-74289837D01*
X141699537Y-74437037D01*
X141501155Y-74678765D01*
X141447044Y-74780000D01*
X140660158Y-74780000D01*
X139850000Y-73969843D01*
X139850000Y-71793555D01*
X139853797Y-71755000D01*
X139850000Y-71716444D01*
X139850000Y-71716439D01*
X139844564Y-71661246D01*
X139838642Y-71601113D01*
X139793754Y-71453140D01*
X139775360Y-71418727D01*
X139720862Y-71316767D01*
X139671450Y-71256559D01*
X139647345Y-71227187D01*
X139647342Y-71227184D01*
X139622764Y-71197236D01*
X139592815Y-71172657D01*
X138631347Y-70211190D01*
X138606764Y-70181236D01*
X138487233Y-70083138D01*
X138350860Y-70010246D01*
X138202887Y-69965359D01*
X138087561Y-69954000D01*
X138087553Y-69954000D01*
X138049000Y-69950203D01*
X138010447Y-69954000D01*
X137218339Y-69954000D01*
X137131637Y-69824241D01*
X136931759Y-69624363D01*
X136696727Y-69467320D01*
X136435574Y-69359147D01*
X136158335Y-69304000D01*
X135875665Y-69304000D01*
X135598426Y-69359147D01*
X135337273Y-69467320D01*
X135102241Y-69624363D01*
X134902363Y-69824241D01*
X134815661Y-69954000D01*
X133134552Y-69954000D01*
X133095999Y-69950203D01*
X133057446Y-69954000D01*
X133057439Y-69954000D01*
X132956490Y-69963943D01*
X132942112Y-69965359D01*
X132907672Y-69975806D01*
X132794140Y-70010246D01*
X132657767Y-70083138D01*
X132538236Y-70181236D01*
X132513653Y-70211190D01*
X132187190Y-70537653D01*
X132157236Y-70562236D01*
X132059138Y-70681768D01*
X131986246Y-70818141D01*
X131941359Y-70966114D01*
X131930000Y-71081440D01*
X131930000Y-71081447D01*
X131926203Y-71120000D01*
X131930000Y-71158553D01*
X131930001Y-81589841D01*
X127342842Y-86177001D01*
X127079324Y-86177001D01*
X127117000Y-85987592D01*
X127117000Y-85712408D01*
X127063314Y-85442510D01*
X126958005Y-85188273D01*
X126805120Y-84959465D01*
X126610535Y-84764880D01*
X126381727Y-84611995D01*
X126304485Y-84580000D01*
X126381727Y-84548005D01*
X126610535Y-84395120D01*
X126805120Y-84200535D01*
X126958005Y-83971727D01*
X127063314Y-83717490D01*
X127117000Y-83447592D01*
X127117000Y-83172408D01*
X127063314Y-82902510D01*
X126958005Y-82648273D01*
X126805120Y-82419465D01*
X126610535Y-82224880D01*
X126381727Y-82071995D01*
X126304485Y-82040000D01*
X126381727Y-82008005D01*
X126610535Y-81855120D01*
X126805120Y-81660535D01*
X126958005Y-81431727D01*
X127063314Y-81177490D01*
X127117000Y-80907592D01*
X127117000Y-80632408D01*
X127063314Y-80362510D01*
X126958005Y-80108273D01*
X126815471Y-79894957D01*
X126836108Y-79869811D01*
X127359812Y-79346107D01*
X127389765Y-79321525D01*
X127487863Y-79201994D01*
X127560755Y-79065621D01*
X127568484Y-79040141D01*
X127605643Y-78917648D01*
X127615832Y-78814189D01*
X127617001Y-78802322D01*
X127617001Y-78802317D01*
X127620798Y-78763761D01*
X127617001Y-78725205D01*
X127617001Y-74300557D01*
X127620798Y-74262001D01*
X127617001Y-74223445D01*
X127617001Y-74223440D01*
X127612860Y-74181397D01*
X127605643Y-74108114D01*
X127560755Y-73960141D01*
X127487863Y-73823768D01*
X127389765Y-73704237D01*
X127359816Y-73679659D01*
X127092238Y-73412080D01*
X127117000Y-73287592D01*
X127117000Y-73012408D01*
X127063314Y-72742510D01*
X126958005Y-72488273D01*
X126805120Y-72259465D01*
X126610535Y-72064880D01*
X126381727Y-71911995D01*
X126268272Y-71865000D01*
X126381727Y-71818005D01*
X126610535Y-71665120D01*
X126805120Y-71470535D01*
X126958005Y-71241727D01*
X127063314Y-70987490D01*
X127117000Y-70717592D01*
X127117000Y-70442408D01*
X127063314Y-70172510D01*
X126958005Y-69918273D01*
X126805120Y-69689465D01*
X126610535Y-69494880D01*
X126381727Y-69341995D01*
X126127490Y-69236686D01*
X126018467Y-69215000D01*
X126331033Y-69215000D01*
X126646912Y-69152168D01*
X126944463Y-69028918D01*
X127212252Y-68849987D01*
X127439987Y-68622252D01*
X127618918Y-68354463D01*
X127742168Y-68056912D01*
X127805000Y-67741033D01*
X127805000Y-67418967D01*
X127742168Y-67103088D01*
X127618918Y-66805537D01*
X127439987Y-66537748D01*
X127212252Y-66310013D01*
X126944463Y-66131082D01*
X126646912Y-66007832D01*
X126331033Y-65945000D01*
X126008967Y-65945000D01*
X125693088Y-66007832D01*
X125395537Y-66131082D01*
X125127748Y-66310013D01*
X124900013Y-66537748D01*
X124721082Y-66805537D01*
X124597832Y-67103088D01*
X124535000Y-67418967D01*
X124535000Y-67741033D01*
X124597832Y-68056912D01*
X124721082Y-68354463D01*
X124900013Y-68622252D01*
X125127748Y-68849987D01*
X125395537Y-69028918D01*
X125693088Y-69152168D01*
X125848092Y-69183000D01*
X125582408Y-69183000D01*
X125312510Y-69236686D01*
X125058273Y-69341995D01*
X124829465Y-69494880D01*
X124634880Y-69689465D01*
X124481995Y-69918273D01*
X124376686Y-70172510D01*
X124323000Y-70442408D01*
X124323000Y-70717592D01*
X124376686Y-70987490D01*
X124481995Y-71241727D01*
X124634880Y-71470535D01*
X124829465Y-71665120D01*
X125058273Y-71818005D01*
X125171728Y-71865000D01*
X125058273Y-71911995D01*
X124829465Y-72064880D01*
X124634880Y-72259465D01*
X124481995Y-72488273D01*
X124376686Y-72742510D01*
X124323000Y-73012408D01*
X124323000Y-73287592D01*
X124376686Y-73557490D01*
X124481995Y-73811727D01*
X124634880Y-74040535D01*
X124829465Y-74235120D01*
X125058273Y-74388005D01*
X125135515Y-74420000D01*
X125058273Y-74451995D01*
X124829465Y-74604880D01*
X124634880Y-74799465D01*
X124564364Y-74905000D01*
X124373556Y-74905000D01*
X124335000Y-74901203D01*
X124296444Y-74905000D01*
X124296439Y-74905000D01*
X124256026Y-74908980D01*
X124181113Y-74916358D01*
X124053753Y-74954993D01*
X124033140Y-74961246D01*
X123896767Y-75034138D01*
X123777236Y-75132236D01*
X123752653Y-75162190D01*
X121392185Y-77522658D01*
X121362237Y-77547236D01*
X121337659Y-77577184D01*
X121337655Y-77577188D01*
X121304690Y-77617356D01*
X121264139Y-77666767D01*
X121251318Y-77690754D01*
X121191246Y-77803141D01*
X121146359Y-77951114D01*
X121131203Y-78105000D01*
X121135001Y-78143563D01*
X121135000Y-119341447D01*
X121131203Y-119380000D01*
X121135000Y-119418553D01*
X121135000Y-119418560D01*
X121146359Y-119533886D01*
X121191246Y-119681859D01*
X121264138Y-119818232D01*
X121362236Y-119937764D01*
X121392190Y-119962347D01*
X126216843Y-124787001D01*
X125897158Y-124787001D01*
X120165000Y-119054843D01*
X120165000Y-86398552D01*
X120168797Y-86359999D01*
X120165000Y-86321446D01*
X120165000Y-86321439D01*
X120153641Y-86206113D01*
X120151220Y-86198130D01*
X120140633Y-86163232D01*
X120108754Y-86058140D01*
X120035862Y-85921767D01*
X119986450Y-85861559D01*
X119962345Y-85832187D01*
X119962342Y-85832184D01*
X119937764Y-85802236D01*
X119907816Y-85777658D01*
X118024348Y-83894191D01*
X117999765Y-83864237D01*
X117880234Y-83766139D01*
X117743861Y-83693247D01*
X117595888Y-83648360D01*
X117480562Y-83637001D01*
X117480554Y-83637001D01*
X117442001Y-83633204D01*
X117403448Y-83637001D01*
X104829324Y-83637001D01*
X104867000Y-83447592D01*
X104867000Y-83172408D01*
X104813314Y-82902510D01*
X104708005Y-82648273D01*
X104555120Y-82419465D01*
X104360535Y-82224880D01*
X104131727Y-82071995D01*
X104054485Y-82040000D01*
X104131727Y-82008005D01*
X104360535Y-81855120D01*
X104555120Y-81660535D01*
X104708005Y-81431727D01*
X104813314Y-81177490D01*
X104867000Y-80907592D01*
X104867000Y-80632408D01*
X104813314Y-80362510D01*
X104708005Y-80108273D01*
X104555120Y-79879465D01*
X104360535Y-79684880D01*
X104131727Y-79531995D01*
X104054485Y-79500000D01*
X104131727Y-79468005D01*
X104360535Y-79315120D01*
X104555120Y-79120535D01*
X104708005Y-78891727D01*
X104813314Y-78637490D01*
X104867000Y-78367592D01*
X104867000Y-78092408D01*
X104813314Y-77822510D01*
X104708005Y-77568273D01*
X104555120Y-77339465D01*
X104360535Y-77144880D01*
X104131727Y-76991995D01*
X104054485Y-76960000D01*
X104131727Y-76928005D01*
X104360535Y-76775120D01*
X104555120Y-76580535D01*
X104708005Y-76351727D01*
X104813314Y-76097490D01*
X104867000Y-75827592D01*
X104867000Y-75552408D01*
X104813314Y-75282510D01*
X104708005Y-75028273D01*
X104555120Y-74799465D01*
X104360535Y-74604880D01*
X104131727Y-74451995D01*
X104054485Y-74420000D01*
X104131727Y-74388005D01*
X104360535Y-74235120D01*
X104555120Y-74040535D01*
X104708005Y-73811727D01*
X104813314Y-73557490D01*
X104867000Y-73287592D01*
X104867000Y-73012408D01*
X104813314Y-72742510D01*
X104708005Y-72488273D01*
X104555120Y-72259465D01*
X104360535Y-72064880D01*
X104131727Y-71911995D01*
X104018272Y-71865000D01*
X104131727Y-71818005D01*
X104360535Y-71665120D01*
X104555120Y-71470535D01*
X104708005Y-71241727D01*
X104813314Y-70987490D01*
X104867000Y-70717592D01*
X104867000Y-70442408D01*
X104813314Y-70172510D01*
X104708005Y-69918273D01*
X104555120Y-69689465D01*
X104360535Y-69494880D01*
X104131727Y-69341995D01*
X103877490Y-69236686D01*
X103607592Y-69183000D01*
X103332408Y-69183000D01*
X103062510Y-69236686D01*
X102808273Y-69341995D01*
X102579465Y-69494880D01*
X102384880Y-69689465D01*
X102231995Y-69918273D01*
X102126686Y-70172510D01*
X102073000Y-70442408D01*
X102073000Y-70717592D01*
X102126686Y-70987490D01*
X102231995Y-71241727D01*
X102384880Y-71470535D01*
X102579465Y-71665120D01*
X102808273Y-71818005D01*
X102921728Y-71865000D01*
X102808273Y-71911995D01*
X102579465Y-72064880D01*
X102384880Y-72259465D01*
X102231995Y-72488273D01*
X102126686Y-72742510D01*
X102073000Y-73012408D01*
X102073000Y-73287592D01*
X102126686Y-73557490D01*
X102231995Y-73811727D01*
X102384880Y-74040535D01*
X102579465Y-74235120D01*
X102808273Y-74388005D01*
X102885515Y-74420000D01*
X102808273Y-74451995D01*
X102579465Y-74604880D01*
X102384880Y-74799465D01*
X102231995Y-75028273D01*
X102126686Y-75282510D01*
X102073000Y-75552408D01*
X102073000Y-75827592D01*
X102126686Y-76097490D01*
X102231995Y-76351727D01*
X102384880Y-76580535D01*
X102579465Y-76775120D01*
X102808273Y-76928005D01*
X102885515Y-76960000D01*
X102808273Y-76991995D01*
X102579465Y-77144880D01*
X102384880Y-77339465D01*
X102231995Y-77568273D01*
X102126686Y-77822510D01*
X102073000Y-78092408D01*
X102073000Y-78367592D01*
X102126686Y-78637490D01*
X102231995Y-78891727D01*
X102384880Y-79120535D01*
X102579465Y-79315120D01*
X102808273Y-79468005D01*
X102885515Y-79500000D01*
X102808273Y-79531995D01*
X102579465Y-79684880D01*
X102384880Y-79879465D01*
X102231995Y-80108273D01*
X102126686Y-80362510D01*
X102073000Y-80632408D01*
X102073000Y-80907592D01*
X102126686Y-81177490D01*
X102231995Y-81431727D01*
X102384880Y-81660535D01*
X102579465Y-81855120D01*
X102808273Y-82008005D01*
X102885515Y-82040000D01*
X102808273Y-82071995D01*
X102579465Y-82224880D01*
X102384880Y-82419465D01*
X102231995Y-82648273D01*
X102126686Y-82902510D01*
X102073000Y-83172408D01*
X102073000Y-83447592D01*
X102111690Y-83642098D01*
X102048114Y-83648359D01*
X101900141Y-83693247D01*
X101763768Y-83766139D01*
X101745223Y-83781359D01*
X101674188Y-83839656D01*
X101674185Y-83839659D01*
X101644237Y-83864237D01*
X101619658Y-83894186D01*
X101072189Y-84441656D01*
X101042236Y-84466238D01*
X100944138Y-84585770D01*
X100871246Y-84722143D01*
X100826359Y-84870116D01*
X100815000Y-84985442D01*
X100815000Y-84985449D01*
X100811203Y-85024002D01*
X99187000Y-85024002D01*
X99187000Y-67418967D01*
X102385000Y-67418967D01*
X102385000Y-67741033D01*
X102447832Y-68056912D01*
X102571082Y-68354463D01*
X102750013Y-68622252D01*
X102977748Y-68849987D01*
X103245537Y-69028918D01*
X103543088Y-69152168D01*
X103858967Y-69215000D01*
X104181033Y-69215000D01*
X104496912Y-69152168D01*
X104794463Y-69028918D01*
X105062252Y-68849987D01*
X105289987Y-68622252D01*
X105468918Y-68354463D01*
X105592168Y-68056912D01*
X105655000Y-67741033D01*
X105655000Y-67418967D01*
X105592168Y-67103088D01*
X105468918Y-66805537D01*
X105289987Y-66537748D01*
X105062252Y-66310013D01*
X104794463Y-66131082D01*
X104496912Y-66007832D01*
X104181033Y-65945000D01*
X103858967Y-65945000D01*
X103543088Y-66007832D01*
X103245537Y-66131082D01*
X102977748Y-66310013D01*
X102750013Y-66537748D01*
X102571082Y-66805537D01*
X102447832Y-67103088D01*
X102385000Y-67418967D01*
X99187000Y-67418967D01*
X99187000Y-58869344D01*
X99715000Y-58869344D01*
X99715000Y-59240656D01*
X99787439Y-59604834D01*
X99929534Y-59947882D01*
X100135825Y-60256618D01*
X100398382Y-60519175D01*
X100707118Y-60725466D01*
X101050166Y-60867561D01*
X101414344Y-60940000D01*
X101785656Y-60940000D01*
X102149834Y-60867561D01*
X102492882Y-60725466D01*
X102801618Y-60519175D01*
X102817293Y-60503500D01*
X159029411Y-60503500D01*
X159029411Y-64323500D01*
X183489590Y-64323500D01*
X183489590Y-60503500D01*
X159029411Y-60503500D01*
X102817293Y-60503500D01*
X103064175Y-60256618D01*
X103270466Y-59947882D01*
X103412561Y-59604834D01*
X103485000Y-59240656D01*
X103485000Y-58869344D01*
X103412561Y-58505166D01*
X103270466Y-58162118D01*
X103064175Y-57853382D01*
X102801618Y-57590825D01*
X102492882Y-57384534D01*
X102149834Y-57242439D01*
X101785656Y-57170000D01*
X101414344Y-57170000D01*
X101050166Y-57242439D01*
X100707118Y-57384534D01*
X100398382Y-57590825D01*
X100135825Y-57853382D01*
X99929534Y-58162118D01*
X99787439Y-58505166D01*
X99715000Y-58869344D01*
X99187000Y-58869344D01*
X99187000Y-56007000D01*
X190436500Y-56007000D01*
X190436500Y-57913728D01*
%TA.AperFunction,Conductor*%
D19*
G36*
X190436500Y-57913728D02*
G01*
X190328966Y-57654118D01*
X190122675Y-57345382D01*
X189860118Y-57082825D01*
X189551382Y-56876534D01*
X189208334Y-56734439D01*
X188844156Y-56662000D01*
X188472844Y-56662000D01*
X188108666Y-56734439D01*
X187765618Y-56876534D01*
X187456882Y-57082825D01*
X187194325Y-57345382D01*
X186988034Y-57654118D01*
X186845939Y-57997166D01*
X186773500Y-58361344D01*
X186773500Y-58732656D01*
X186845939Y-59096834D01*
X186988034Y-59439882D01*
X187194325Y-59748618D01*
X187456882Y-60011175D01*
X187765618Y-60217466D01*
X188108666Y-60359561D01*
X188472844Y-60432000D01*
X188844156Y-60432000D01*
X189208334Y-60359561D01*
X189551382Y-60217466D01*
X189860118Y-60011175D01*
X190122675Y-59748618D01*
X190328966Y-59439882D01*
X190436500Y-59180272D01*
X190436500Y-134493000D01*
X99187000Y-134493000D01*
X99187000Y-131259344D01*
X99715000Y-131259344D01*
X99715000Y-131630656D01*
X99787439Y-131994834D01*
X99929534Y-132337882D01*
X100135825Y-132646618D01*
X100398382Y-132909175D01*
X100707118Y-133115466D01*
X101050166Y-133257561D01*
X101414344Y-133330000D01*
X101785656Y-133330000D01*
X102149834Y-133257561D01*
X102492882Y-133115466D01*
X102801618Y-132909175D01*
X103064175Y-132646618D01*
X103270466Y-132337882D01*
X103412561Y-131994834D01*
X103485000Y-131630656D01*
X103485000Y-131259344D01*
X103412561Y-130895166D01*
X103326686Y-130687844D01*
X186138500Y-130687844D01*
X186138500Y-131059156D01*
X186210939Y-131423334D01*
X186353034Y-131766382D01*
X186559325Y-132075118D01*
X186821882Y-132337675D01*
X187130618Y-132543966D01*
X187473666Y-132686061D01*
X187837844Y-132758500D01*
X188209156Y-132758500D01*
X188573334Y-132686061D01*
X188916382Y-132543966D01*
X189225118Y-132337675D01*
X189487675Y-132075118D01*
X189693966Y-131766382D01*
X189836061Y-131423334D01*
X189908500Y-131059156D01*
X189908500Y-130687844D01*
X189836061Y-130323666D01*
X189693966Y-129980618D01*
X189487675Y-129671882D01*
X189225118Y-129409325D01*
X188916382Y-129203034D01*
X188573334Y-129060939D01*
X188209156Y-128988500D01*
X187837844Y-128988500D01*
X187473666Y-129060939D01*
X187130618Y-129203034D01*
X186821882Y-129409325D01*
X186559325Y-129671882D01*
X186353034Y-129980618D01*
X186210939Y-130323666D01*
X186138500Y-130687844D01*
X103326686Y-130687844D01*
X103270466Y-130552118D01*
X103064175Y-130243382D01*
X102801618Y-129980825D01*
X102492882Y-129774534D01*
X102149834Y-129632439D01*
X101785656Y-129560000D01*
X101414344Y-129560000D01*
X101050166Y-129632439D01*
X100707118Y-129774534D01*
X100398382Y-129980825D01*
X100135825Y-130243382D01*
X99929534Y-130552118D01*
X99787439Y-130895166D01*
X99715000Y-131259344D01*
X99187000Y-131259344D01*
X99187000Y-85024002D01*
X100811203Y-85024002D01*
X100815000Y-85062555D01*
X100815001Y-86481438D01*
X100811203Y-86520000D01*
X100826359Y-86673886D01*
X100871246Y-86821859D01*
X100886288Y-86850000D01*
X100944139Y-86958233D01*
X100972672Y-86993000D01*
X101017655Y-87047812D01*
X101017659Y-87047816D01*
X101042237Y-87077764D01*
X101072185Y-87102342D01*
X102097762Y-88127920D01*
X102073000Y-88252408D01*
X102073000Y-88527592D01*
X102126686Y-88797490D01*
X102231995Y-89051727D01*
X102384880Y-89280535D01*
X102579465Y-89475120D01*
X102808273Y-89628005D01*
X102885515Y-89660000D01*
X102808273Y-89691995D01*
X102579465Y-89844880D01*
X102384880Y-90039465D01*
X102231995Y-90268273D01*
X102126686Y-90522510D01*
X102073000Y-90792408D01*
X102073000Y-91067592D01*
X102126686Y-91337490D01*
X102231995Y-91591727D01*
X102384880Y-91820535D01*
X102579465Y-92015120D01*
X102808273Y-92168005D01*
X102885515Y-92200000D01*
X102808273Y-92231995D01*
X102579465Y-92384880D01*
X102384880Y-92579465D01*
X102231995Y-92808273D01*
X102126686Y-93062510D01*
X102073000Y-93332408D01*
X102073000Y-93607592D01*
X102126686Y-93877490D01*
X102231995Y-94131727D01*
X102384880Y-94360535D01*
X102579465Y-94555120D01*
X102808273Y-94708005D01*
X102885515Y-94740000D01*
X102808273Y-94771995D01*
X102579465Y-94924880D01*
X102384880Y-95119465D01*
X102231995Y-95348273D01*
X102126686Y-95602510D01*
X102073000Y-95872408D01*
X102073000Y-96147592D01*
X102126686Y-96417490D01*
X102231995Y-96671727D01*
X102384880Y-96900535D01*
X102579465Y-97095120D01*
X102808273Y-97248005D01*
X102885515Y-97280000D01*
X102808273Y-97311995D01*
X102579465Y-97464880D01*
X102384880Y-97659465D01*
X102231995Y-97888273D01*
X102126686Y-98142510D01*
X102073000Y-98412408D01*
X102073000Y-98687592D01*
X102126686Y-98957490D01*
X102231995Y-99211727D01*
X102384880Y-99440535D01*
X102579465Y-99635120D01*
X102808273Y-99788005D01*
X102885515Y-99820000D01*
X102808273Y-99851995D01*
X102579465Y-100004880D01*
X102384880Y-100199465D01*
X102231995Y-100428273D01*
X102126686Y-100682510D01*
X102073000Y-100952408D01*
X102073000Y-101227592D01*
X102126686Y-101497490D01*
X102231995Y-101751727D01*
X102384880Y-101980535D01*
X102579465Y-102175120D01*
X102808273Y-102328005D01*
X103062510Y-102433314D01*
X103332408Y-102487000D01*
X103607592Y-102487000D01*
X103877490Y-102433314D01*
X104131727Y-102328005D01*
X104360535Y-102175120D01*
X104555120Y-101980535D01*
X104708005Y-101751727D01*
X104813314Y-101497490D01*
X104867000Y-101227592D01*
X104867000Y-100952408D01*
X104813314Y-100682510D01*
X104708005Y-100428273D01*
X104555120Y-100199465D01*
X104360535Y-100004880D01*
X104131727Y-99851995D01*
X104054485Y-99820000D01*
X104131727Y-99788005D01*
X104360535Y-99635120D01*
X104555120Y-99440535D01*
X104708005Y-99211727D01*
X104813314Y-98957490D01*
X104867000Y-98687592D01*
X104867000Y-98412408D01*
X104813314Y-98142510D01*
X104708005Y-97888273D01*
X104555120Y-97659465D01*
X104360535Y-97464880D01*
X104131727Y-97311995D01*
X104054485Y-97280000D01*
X104131727Y-97248005D01*
X104360535Y-97095120D01*
X104555120Y-96900535D01*
X104708005Y-96671727D01*
X104813314Y-96417490D01*
X104867000Y-96147592D01*
X104867000Y-95872408D01*
X104813314Y-95602510D01*
X104708005Y-95348273D01*
X104555120Y-95119465D01*
X104360535Y-94924880D01*
X104131727Y-94771995D01*
X104054485Y-94740000D01*
X104131727Y-94708005D01*
X104360535Y-94555120D01*
X104555120Y-94360535D01*
X104708005Y-94131727D01*
X104813314Y-93877490D01*
X104867000Y-93607592D01*
X104867000Y-93332408D01*
X104813314Y-93062510D01*
X104708005Y-92808273D01*
X104555120Y-92579465D01*
X104360535Y-92384880D01*
X104131727Y-92231995D01*
X104054485Y-92200000D01*
X104131727Y-92168005D01*
X104360535Y-92015120D01*
X104555120Y-91820535D01*
X104708005Y-91591727D01*
X104813314Y-91337490D01*
X104867000Y-91067592D01*
X104867000Y-90792408D01*
X104813314Y-90522510D01*
X104708005Y-90268273D01*
X104555120Y-90039465D01*
X104360535Y-89844880D01*
X104131727Y-89691995D01*
X104054485Y-89660000D01*
X104131727Y-89628005D01*
X104360535Y-89475120D01*
X104555120Y-89280535D01*
X104708005Y-89051727D01*
X104813314Y-88797490D01*
X104867000Y-88527592D01*
X104867000Y-88252408D01*
X104813314Y-87982510D01*
X104708005Y-87728273D01*
X104555120Y-87499465D01*
X104360535Y-87304880D01*
X104131727Y-87151995D01*
X104054485Y-87120000D01*
X104131727Y-87088005D01*
X104360535Y-86935120D01*
X104555120Y-86740535D01*
X104625636Y-86635000D01*
X113464843Y-86635000D01*
X116055001Y-89225159D01*
X116055000Y-119341447D01*
X116051203Y-119380000D01*
X116055000Y-119418553D01*
X116055000Y-119418560D01*
X116066359Y-119533886D01*
X116111246Y-119681859D01*
X116184138Y-119818232D01*
X116282236Y-119937764D01*
X116312190Y-119962347D01*
X123877658Y-127527816D01*
X123902236Y-127557764D01*
X123932184Y-127582342D01*
X123932187Y-127582345D01*
X123961559Y-127606450D01*
X124021767Y-127655862D01*
X124158140Y-127728754D01*
X124271672Y-127763194D01*
X124306112Y-127773641D01*
X124320490Y-127775057D01*
X124421439Y-127785000D01*
X124421446Y-127785000D01*
X124459999Y-127788797D01*
X124498552Y-127785000D01*
X175956447Y-127785000D01*
X175995000Y-127788797D01*
X176033553Y-127785000D01*
X176033561Y-127785000D01*
X176148887Y-127773641D01*
X176296860Y-127728754D01*
X176433233Y-127655862D01*
X176552764Y-127557764D01*
X176577347Y-127527810D01*
X178272920Y-125832238D01*
X178397408Y-125857000D01*
X178672592Y-125857000D01*
X178942490Y-125803314D01*
X179196727Y-125698005D01*
X179425535Y-125545120D01*
X179620120Y-125350535D01*
X179690636Y-125245000D01*
X179919364Y-125245000D01*
X179989880Y-125350535D01*
X180184465Y-125545120D01*
X180413273Y-125698005D01*
X180667510Y-125803314D01*
X180937408Y-125857000D01*
X181212592Y-125857000D01*
X181482490Y-125803314D01*
X181736727Y-125698005D01*
X181965535Y-125545120D01*
X182160120Y-125350535D01*
X182313005Y-125121727D01*
X182345000Y-125044485D01*
X182376995Y-125121727D01*
X182529880Y-125350535D01*
X182724465Y-125545120D01*
X182953273Y-125698005D01*
X183207510Y-125803314D01*
X183477408Y-125857000D01*
X183752592Y-125857000D01*
X184022490Y-125803314D01*
X184276727Y-125698005D01*
X184505535Y-125545120D01*
X184700120Y-125350535D01*
X184853005Y-125121727D01*
X184958314Y-124867490D01*
X185012000Y-124597592D01*
X185012000Y-124322408D01*
X184958314Y-124052510D01*
X184853005Y-123798273D01*
X184700120Y-123569465D01*
X184505535Y-123374880D01*
X184276727Y-123221995D01*
X184022490Y-123116686D01*
X183752592Y-123063000D01*
X183477408Y-123063000D01*
X183352920Y-123087762D01*
X176942367Y-116677210D01*
X176917784Y-116647256D01*
X176798253Y-116549158D01*
X176661880Y-116476266D01*
X176513907Y-116431379D01*
X176398581Y-116420020D01*
X176398573Y-116420020D01*
X176360020Y-116416223D01*
X176321467Y-116420020D01*
X172980137Y-116420020D01*
X176422810Y-112977347D01*
X176452764Y-112952764D01*
X176550862Y-112833233D01*
X176623754Y-112696860D01*
X176668642Y-112548887D01*
X176676020Y-112473974D01*
X176680000Y-112433561D01*
X176680000Y-112433556D01*
X176683797Y-112395000D01*
X176680000Y-112356444D01*
X176680000Y-103628165D01*
X176723754Y-103546306D01*
X176768641Y-103398333D01*
X176780000Y-103283007D01*
X176780000Y-103283000D01*
X176783797Y-103244447D01*
X176780000Y-103205894D01*
X176780000Y-86695636D01*
X176885535Y-86625120D01*
X177080120Y-86430535D01*
X177233005Y-86201727D01*
X177265000Y-86124485D01*
X177296995Y-86201727D01*
X177449880Y-86430535D01*
X177644465Y-86625120D01*
X177873273Y-86778005D01*
X178127510Y-86883314D01*
X178397408Y-86937000D01*
X178672592Y-86937000D01*
X178942490Y-86883314D01*
X179196727Y-86778005D01*
X179425535Y-86625120D01*
X179620120Y-86430535D01*
X179773005Y-86201727D01*
X179805000Y-86124485D01*
X179836995Y-86201727D01*
X179989880Y-86430535D01*
X180184465Y-86625120D01*
X180413273Y-86778005D01*
X180667510Y-86883314D01*
X180937408Y-86937000D01*
X181212592Y-86937000D01*
X181482490Y-86883314D01*
X181736727Y-86778005D01*
X181965535Y-86625120D01*
X182085090Y-86505565D01*
X182829040Y-86505565D01*
X182896020Y-86745656D01*
X183145048Y-86862756D01*
X183412135Y-86929023D01*
X183687017Y-86941910D01*
X183959133Y-86900922D01*
X184218023Y-86807636D01*
X184333980Y-86745656D01*
X184400960Y-86505565D01*
X183615000Y-85719605D01*
X182829040Y-86505565D01*
X182085090Y-86505565D01*
X182160120Y-86430535D01*
X182313005Y-86201727D01*
X182342692Y-86130057D01*
X182347364Y-86143023D01*
X182409344Y-86258980D01*
X182649435Y-86325960D01*
X183435395Y-85540000D01*
X183794605Y-85540000D01*
X184580565Y-86325960D01*
X184820656Y-86258980D01*
X184937756Y-86009952D01*
X185004023Y-85742865D01*
X185016910Y-85467983D01*
X184975922Y-85195867D01*
X184882636Y-84936977D01*
X184820656Y-84821020D01*
X184580565Y-84754040D01*
X183794605Y-85540000D01*
X183435395Y-85540000D01*
X182649435Y-84754040D01*
X182409344Y-84821020D01*
X182345515Y-84956760D01*
X182313005Y-84878273D01*
X182160120Y-84649465D01*
X182085090Y-84574435D01*
X182829040Y-84574435D01*
X183615000Y-85360395D01*
X184400960Y-84574435D01*
X184333980Y-84334344D01*
X184084952Y-84217244D01*
X183817865Y-84150977D01*
X183542983Y-84138090D01*
X183270867Y-84179078D01*
X183011977Y-84272364D01*
X182896020Y-84334344D01*
X182829040Y-84574435D01*
X182085090Y-84574435D01*
X181965535Y-84454880D01*
X181839381Y-84370586D01*
X181803754Y-84253140D01*
X181730862Y-84116767D01*
X181632764Y-83997236D01*
X181602817Y-83972659D01*
X179652347Y-82022190D01*
X179627764Y-81992236D01*
X179508233Y-81894138D01*
X179371860Y-81821246D01*
X179223887Y-81776359D01*
X179108561Y-81765000D01*
X179108553Y-81765000D01*
X179070000Y-81761203D01*
X179031447Y-81765000D01*
X174663552Y-81765000D01*
X174624999Y-81761203D01*
X174586446Y-81765000D01*
X174586439Y-81765000D01*
X174471113Y-81776359D01*
X174323140Y-81821246D01*
X174186767Y-81894138D01*
X174126559Y-81943550D01*
X174097187Y-81967655D01*
X174097184Y-81967658D01*
X174067236Y-81992236D01*
X174042658Y-82022184D01*
X170922185Y-85142658D01*
X170892237Y-85167236D01*
X170867659Y-85197184D01*
X170867655Y-85197188D01*
X170834690Y-85237356D01*
X170794139Y-85286767D01*
X170791216Y-85292236D01*
X170721246Y-85423141D01*
X170676359Y-85571114D01*
X170661203Y-85725000D01*
X170665001Y-85763563D01*
X170665000Y-87406961D01*
X170287185Y-87784776D01*
X170257237Y-87809354D01*
X170232659Y-87839302D01*
X170232655Y-87839306D01*
X170223591Y-87850351D01*
X170159139Y-87928885D01*
X170139474Y-87965677D01*
X170086246Y-88065259D01*
X170041359Y-88213232D01*
X170026203Y-88367118D01*
X170030001Y-88405681D01*
X170030000Y-108099288D01*
X169035000Y-109094288D01*
X169035000Y-108641190D01*
X169002950Y-108315784D01*
X168876294Y-107898255D01*
X168670616Y-107513458D01*
X168393820Y-107176180D01*
X168056542Y-106899384D01*
X167671744Y-106693706D01*
X167605000Y-106673459D01*
X167605000Y-91446541D01*
X167671745Y-91426294D01*
X168056542Y-91220616D01*
X168393820Y-90943820D01*
X168670616Y-90606542D01*
X168876294Y-90221744D01*
X169002950Y-89804215D01*
X169035000Y-89478809D01*
X169035000Y-88321190D01*
X169002950Y-87995784D01*
X168876294Y-87578255D01*
X168670616Y-87193458D01*
X168393820Y-86856180D01*
X168056542Y-86579384D01*
X167671744Y-86373706D01*
X167605000Y-86353459D01*
X167605000Y-81133552D01*
X167608797Y-81094999D01*
X167605000Y-81056446D01*
X167605000Y-81056439D01*
X167593641Y-80941113D01*
X167548754Y-80793140D01*
X167475862Y-80656767D01*
X167377764Y-80537236D01*
X167347817Y-80512659D01*
X165682347Y-78847190D01*
X165657764Y-78817236D01*
X165538233Y-78719138D01*
X165401860Y-78646246D01*
X165253887Y-78601359D01*
X165138561Y-78590000D01*
X165138553Y-78590000D01*
X165100000Y-78586203D01*
X165061447Y-78590000D01*
X160345158Y-78590000D01*
X158392000Y-76636843D01*
X158392000Y-76512339D01*
X158521759Y-76425637D01*
X158721637Y-76225759D01*
X158878680Y-75990727D01*
X158986853Y-75729574D01*
X159042000Y-75452335D01*
X159042000Y-75169665D01*
X159024164Y-75080000D01*
X160964843Y-75080000D01*
X161977658Y-76092815D01*
X162002236Y-76122764D01*
X162032184Y-76147342D01*
X162032187Y-76147345D01*
X162061559Y-76171450D01*
X162121767Y-76220862D01*
X162258140Y-76293754D01*
X162371672Y-76328194D01*
X162406112Y-76338641D01*
X162420490Y-76340057D01*
X162521439Y-76350000D01*
X162521446Y-76350000D01*
X162559999Y-76353797D01*
X162598552Y-76350000D01*
X163037044Y-76350000D01*
X163091155Y-76451235D01*
X163289537Y-76692963D01*
X163531265Y-76891345D01*
X163807051Y-77038755D01*
X164106296Y-77129530D01*
X164339514Y-77152500D01*
X164590486Y-77152500D01*
X164823704Y-77129530D01*
X165122949Y-77038755D01*
X165398735Y-76891345D01*
X165640463Y-76692963D01*
X165817123Y-76477702D01*
X171906903Y-76477702D01*
X171978486Y-76721671D01*
X172233996Y-76842571D01*
X172508184Y-76911300D01*
X172790512Y-76925217D01*
X173070130Y-76883787D01*
X173336292Y-76788603D01*
X173461514Y-76721671D01*
X173533097Y-76477702D01*
X172720000Y-75664605D01*
X171906903Y-76477702D01*
X165817123Y-76477702D01*
X165838845Y-76451235D01*
X165986255Y-76175449D01*
X166077030Y-75876204D01*
X166107681Y-75565000D01*
X166106747Y-75555512D01*
X171279783Y-75555512D01*
X171321213Y-75835130D01*
X171416397Y-76101292D01*
X171483329Y-76226514D01*
X171727298Y-76298097D01*
X172540395Y-75485000D01*
X172899605Y-75485000D01*
X173712702Y-76298097D01*
X173956671Y-76226514D01*
X174077571Y-75971004D01*
X174146300Y-75696816D01*
X174160217Y-75414488D01*
X174118787Y-75134870D01*
X174023603Y-74868708D01*
X173956671Y-74743486D01*
X173712702Y-74671903D01*
X172899605Y-75485000D01*
X172540395Y-75485000D01*
X171727298Y-74671903D01*
X171483329Y-74743486D01*
X171362429Y-74998996D01*
X171293700Y-75273184D01*
X171279783Y-75555512D01*
X166106747Y-75555512D01*
X166077030Y-75253796D01*
X165986255Y-74954551D01*
X165838845Y-74678765D01*
X165685815Y-74492298D01*
X171906903Y-74492298D01*
X172720000Y-75305395D01*
X173533097Y-74492298D01*
X173461514Y-74248329D01*
X173206004Y-74127429D01*
X172931816Y-74058700D01*
X172649488Y-74044783D01*
X172369870Y-74086213D01*
X172103708Y-74181397D01*
X171978486Y-74248329D01*
X171906903Y-74492298D01*
X165685815Y-74492298D01*
X165640463Y-74437037D01*
X165461101Y-74289837D01*
X165646315Y-74134437D01*
X165840969Y-73891923D01*
X165984571Y-73616094D01*
X166055563Y-73397980D01*
X165935594Y-73152000D01*
X164592000Y-73152000D01*
X164592000Y-73172000D01*
X164338000Y-73172000D01*
X164338000Y-73152000D01*
X162994406Y-73152000D01*
X162874437Y-73397980D01*
X162945429Y-73616094D01*
X163089031Y-73891923D01*
X163283685Y-74134437D01*
X163468899Y-74289837D01*
X163289537Y-74437037D01*
X163091155Y-74678765D01*
X163037044Y-74780000D01*
X162885158Y-74780000D01*
X161872347Y-73767190D01*
X161847764Y-73737236D01*
X161728233Y-73639138D01*
X161591860Y-73566246D01*
X161443887Y-73521359D01*
X161328561Y-73510000D01*
X161328553Y-73510000D01*
X161290000Y-73506203D01*
X161251447Y-73510000D01*
X158661555Y-73510000D01*
X158623000Y-73506203D01*
X158584444Y-73510000D01*
X158584439Y-73510000D01*
X158544026Y-73513980D01*
X158469113Y-73521358D01*
X158321140Y-73566246D01*
X158184767Y-73639138D01*
X158124559Y-73688550D01*
X158095187Y-73712655D01*
X158095184Y-73712658D01*
X158065236Y-73737236D01*
X158040657Y-73767185D01*
X157901396Y-73906446D01*
X157748335Y-73876000D01*
X157465665Y-73876000D01*
X157188426Y-73931147D01*
X156927273Y-74039320D01*
X156692241Y-74196363D01*
X156492363Y-74396241D01*
X156335320Y-74631273D01*
X156227147Y-74892426D01*
X156172000Y-75169665D01*
X156172000Y-75415000D01*
X154343552Y-75415000D01*
X154304999Y-75411203D01*
X154266446Y-75415000D01*
X154266439Y-75415000D01*
X154165490Y-75424943D01*
X154151112Y-75426359D01*
X154116672Y-75436806D01*
X154003140Y-75471246D01*
X153866767Y-75544138D01*
X153806559Y-75593550D01*
X153777187Y-75617655D01*
X153777184Y-75617658D01*
X153747236Y-75642236D01*
X153722658Y-75672185D01*
X152709843Y-76685000D01*
X151882274Y-76685000D01*
X151943097Y-76477702D01*
X151130000Y-75664605D01*
X151115858Y-75678748D01*
X150936253Y-75499143D01*
X150950395Y-75485000D01*
X151309605Y-75485000D01*
X152122702Y-76298097D01*
X152366671Y-76226514D01*
X152487571Y-75971004D01*
X152556300Y-75696816D01*
X152570217Y-75414488D01*
X152528787Y-75134870D01*
X152433603Y-74868708D01*
X152366671Y-74743486D01*
X152122702Y-74671903D01*
X151309605Y-75485000D01*
X150950395Y-75485000D01*
X150137298Y-74671903D01*
X150010000Y-74709254D01*
X150010000Y-74492298D01*
X150316903Y-74492298D01*
X151130000Y-75305395D01*
X151943097Y-74492298D01*
X151871514Y-74248329D01*
X151616004Y-74127429D01*
X151341816Y-74058700D01*
X151059488Y-74044783D01*
X150779870Y-74086213D01*
X150513708Y-74181397D01*
X150388486Y-74248329D01*
X150316903Y-74492298D01*
X150010000Y-74492298D01*
X150010000Y-72715157D01*
X150835603Y-71889554D01*
X150988665Y-71920000D01*
X151271335Y-71920000D01*
X151548574Y-71864853D01*
X151809727Y-71756680D01*
X152044759Y-71599637D01*
X152244637Y-71399759D01*
X152308820Y-71303702D01*
X156793903Y-71303702D01*
X156865486Y-71547671D01*
X157120996Y-71668571D01*
X157395184Y-71737300D01*
X157677512Y-71751217D01*
X157957130Y-71709787D01*
X158223292Y-71614603D01*
X158348514Y-71547671D01*
X158420097Y-71303702D01*
X157607000Y-70490605D01*
X156793903Y-71303702D01*
X152308820Y-71303702D01*
X152401680Y-71164727D01*
X152509853Y-70903574D01*
X152565000Y-70626335D01*
X152565000Y-70381512D01*
X156166783Y-70381512D01*
X156208213Y-70661130D01*
X156303397Y-70927292D01*
X156370329Y-71052514D01*
X156614298Y-71124097D01*
X157427395Y-70311000D01*
X157786605Y-70311000D01*
X158599702Y-71124097D01*
X158843671Y-71052514D01*
X158964571Y-70797004D01*
X159033300Y-70522816D01*
X159047217Y-70240488D01*
X159005787Y-69960870D01*
X158910603Y-69694708D01*
X158843671Y-69569486D01*
X158717616Y-69532500D01*
X162826928Y-69532500D01*
X162826928Y-71437500D01*
X162839188Y-71561982D01*
X162875498Y-71681680D01*
X162934463Y-71791994D01*
X163013815Y-71888685D01*
X163110506Y-71968037D01*
X163202219Y-72017059D01*
X163089031Y-72158077D01*
X162945429Y-72433906D01*
X162874437Y-72652020D01*
X162994406Y-72898000D01*
X164338000Y-72898000D01*
X164338000Y-72878000D01*
X164592000Y-72878000D01*
X164592000Y-72898000D01*
X165935594Y-72898000D01*
X166055563Y-72652020D01*
X165984571Y-72433906D01*
X165840969Y-72158077D01*
X165727781Y-72017059D01*
X165819494Y-71968037D01*
X165916185Y-71888685D01*
X165995537Y-71791994D01*
X166054502Y-71681680D01*
X166090812Y-71561982D01*
X166103072Y-71437500D01*
X166103072Y-71270000D01*
X171518661Y-71270000D01*
X171605363Y-71399759D01*
X171805241Y-71599637D01*
X172040273Y-71756680D01*
X172301426Y-71864853D01*
X172578665Y-71920000D01*
X172861335Y-71920000D01*
X173138574Y-71864853D01*
X173399727Y-71756680D01*
X173634759Y-71599637D01*
X173814620Y-71419777D01*
X175312653Y-72917810D01*
X175337236Y-72947764D01*
X175456767Y-73045862D01*
X175593140Y-73118754D01*
X175741113Y-73163642D01*
X175816026Y-73171020D01*
X175856439Y-73175000D01*
X175856444Y-73175000D01*
X175895000Y-73178797D01*
X175933556Y-73175000D01*
X178121928Y-73175000D01*
X178121928Y-74190000D01*
X178138992Y-74363254D01*
X178189528Y-74529850D01*
X178271595Y-74683386D01*
X178382038Y-74817962D01*
X178516614Y-74928405D01*
X178670150Y-75010472D01*
X178836746Y-75061008D01*
X179010000Y-75078072D01*
X181670000Y-75078072D01*
X181843254Y-75061008D01*
X182009850Y-75010472D01*
X182163386Y-74928405D01*
X182297962Y-74817962D01*
X182408405Y-74683386D01*
X182490472Y-74529850D01*
X182541008Y-74363254D01*
X182554700Y-74224238D01*
X182823562Y-74516044D01*
X183175009Y-74772262D01*
X183569689Y-74954993D01*
X183828631Y-75024263D01*
X184173000Y-74912324D01*
X184173000Y-72517000D01*
X184427000Y-72517000D01*
X184427000Y-74912324D01*
X184771369Y-75024263D01*
X185030311Y-74954993D01*
X185424991Y-74772262D01*
X185776438Y-74516044D01*
X186071147Y-74196185D01*
X186297792Y-73824977D01*
X186447663Y-73416685D01*
X186515000Y-72987000D01*
X186515000Y-72517000D01*
X184427000Y-72517000D01*
X184173000Y-72517000D01*
X184153000Y-72517000D01*
X184153000Y-72263000D01*
X184173000Y-72263000D01*
X184173000Y-69867676D01*
X184427000Y-69867676D01*
X184427000Y-72263000D01*
X186515000Y-72263000D01*
X186515000Y-71793000D01*
X186447663Y-71363315D01*
X186297792Y-70955023D01*
X186071147Y-70583815D01*
X185776438Y-70263956D01*
X185424991Y-70007738D01*
X185030311Y-69825007D01*
X184771369Y-69755737D01*
X184427000Y-69867676D01*
X184173000Y-69867676D01*
X183828631Y-69755737D01*
X183569689Y-69825007D01*
X183175009Y-70007738D01*
X182823562Y-70263956D01*
X182554700Y-70555762D01*
X182541008Y-70416746D01*
X182490472Y-70250150D01*
X182408405Y-70096614D01*
X182297962Y-69962038D01*
X182163386Y-69851595D01*
X182009850Y-69769528D01*
X181843254Y-69718992D01*
X181670000Y-69701928D01*
X179010000Y-69701928D01*
X178836746Y-69718992D01*
X178670150Y-69769528D01*
X178516614Y-69851595D01*
X178382038Y-69962038D01*
X178271595Y-70096614D01*
X178189528Y-70250150D01*
X178138992Y-70416746D01*
X178121928Y-70590000D01*
X178121928Y-71605000D01*
X176220157Y-71605000D01*
X174572347Y-69957190D01*
X174547764Y-69927236D01*
X174428233Y-69829138D01*
X174291860Y-69756246D01*
X174143887Y-69711359D01*
X174028561Y-69700000D01*
X174028553Y-69700000D01*
X173990000Y-69696203D01*
X173951447Y-69700000D01*
X173921339Y-69700000D01*
X173834637Y-69570241D01*
X173634759Y-69370363D01*
X173399727Y-69213320D01*
X173138574Y-69105147D01*
X172861335Y-69050000D01*
X172578665Y-69050000D01*
X172301426Y-69105147D01*
X172040273Y-69213320D01*
X171805241Y-69370363D01*
X171605363Y-69570241D01*
X171518661Y-69700000D01*
X166103072Y-69700000D01*
X166103072Y-69532500D01*
X166090812Y-69408018D01*
X166054502Y-69288320D01*
X165995537Y-69178006D01*
X165916185Y-69081315D01*
X165819494Y-69001963D01*
X165709180Y-68942998D01*
X165589482Y-68906688D01*
X165465000Y-68894428D01*
X163465000Y-68894428D01*
X163340518Y-68906688D01*
X163220820Y-68942998D01*
X163110506Y-69001963D01*
X163013815Y-69081315D01*
X162934463Y-69178006D01*
X162875498Y-69288320D01*
X162839188Y-69408018D01*
X162826928Y-69532500D01*
X158717616Y-69532500D01*
X158599702Y-69497903D01*
X157786605Y-70311000D01*
X157427395Y-70311000D01*
X156614298Y-69497903D01*
X156370329Y-69569486D01*
X156249429Y-69824996D01*
X156180700Y-70099184D01*
X156166783Y-70381512D01*
X152565000Y-70381512D01*
X152565000Y-70343665D01*
X152509853Y-70066426D01*
X152401680Y-69805273D01*
X152244637Y-69570241D01*
X152044759Y-69370363D01*
X151966839Y-69318298D01*
X156793903Y-69318298D01*
X157607000Y-70131395D01*
X158420097Y-69318298D01*
X158348514Y-69074329D01*
X158093004Y-68953429D01*
X157818816Y-68884700D01*
X157536488Y-68870783D01*
X157256870Y-68912213D01*
X156990708Y-69007397D01*
X156865486Y-69074329D01*
X156793903Y-69318298D01*
X151966839Y-69318298D01*
X151809727Y-69213320D01*
X151548574Y-69105147D01*
X151271335Y-69050000D01*
X150988665Y-69050000D01*
X150711426Y-69105147D01*
X150450273Y-69213320D01*
X150215241Y-69370363D01*
X150015363Y-69570241D01*
X149928661Y-69700000D01*
X144513072Y-69700000D01*
X144513072Y-69532500D01*
X144500812Y-69408018D01*
X144464502Y-69288320D01*
X144405537Y-69178006D01*
X144326185Y-69081315D01*
X144229494Y-69001963D01*
X144119180Y-68942998D01*
X143999482Y-68906688D01*
X143875000Y-68894428D01*
X141875000Y-68894428D01*
X141750518Y-68906688D01*
X141630820Y-68942998D01*
X141520506Y-69001963D01*
X141423815Y-69081315D01*
X141344463Y-69178006D01*
X141285498Y-69288320D01*
X141249188Y-69408018D01*
X141236928Y-69532500D01*
X141236928Y-71437500D01*
X141249188Y-71561982D01*
X141285498Y-71681680D01*
X141344463Y-71791994D01*
X141423815Y-71888685D01*
X141520506Y-71968037D01*
X141612219Y-72017059D01*
X141499031Y-72158077D01*
X141355429Y-72433906D01*
X141284437Y-72652020D01*
X141404406Y-72898000D01*
X142748000Y-72898000D01*
X142748000Y-72878000D01*
X143002000Y-72878000D01*
X143002000Y-72898000D01*
X144345594Y-72898000D01*
X144465563Y-72652020D01*
X144394571Y-72433906D01*
X144250969Y-72158077D01*
X144137781Y-72017059D01*
X144229494Y-71968037D01*
X144326185Y-71888685D01*
X144405537Y-71791994D01*
X144464502Y-71681680D01*
X144500812Y-71561982D01*
X144513072Y-71437500D01*
X144513072Y-71270000D01*
X149234843Y-71270000D01*
X148697185Y-71807658D01*
X148667237Y-71832236D01*
X148642659Y-71862184D01*
X148642655Y-71862188D01*
X148620910Y-71888685D01*
X148569139Y-71951767D01*
X148560443Y-71968037D01*
X148496246Y-72088141D01*
X148451359Y-72236114D01*
X148436203Y-72390000D01*
X148440001Y-72428563D01*
X148440000Y-76161447D01*
X148436203Y-76200000D01*
X148440000Y-76238553D01*
X148440000Y-76238560D01*
X148451359Y-76353886D01*
X148496246Y-76501859D01*
X148569138Y-76638232D01*
X148667236Y-76757764D01*
X148697188Y-76782345D01*
X149912658Y-77997815D01*
X149937236Y-78027764D01*
X149967184Y-78052342D01*
X149967187Y-78052345D01*
X149984361Y-78066439D01*
X150056767Y-78125862D01*
X150193140Y-78198754D01*
X150306672Y-78233194D01*
X150341112Y-78243641D01*
X150355490Y-78245057D01*
X150456439Y-78255000D01*
X150456446Y-78255000D01*
X150494999Y-78258797D01*
X150533552Y-78255000D01*
X152996447Y-78255000D01*
X153035000Y-78258797D01*
X153073553Y-78255000D01*
X153073561Y-78255000D01*
X153188887Y-78243641D01*
X153336860Y-78198754D01*
X153473233Y-78125862D01*
X153592764Y-78027764D01*
X153617347Y-77997810D01*
X154630158Y-76985000D01*
X156679447Y-76985000D01*
X156718000Y-76988797D01*
X156756553Y-76985000D01*
X156756561Y-76985000D01*
X156819854Y-76978766D01*
X156833359Y-77115886D01*
X156878246Y-77263859D01*
X156878247Y-77263860D01*
X156951139Y-77400233D01*
X156991275Y-77449138D01*
X157024655Y-77489812D01*
X157024659Y-77489816D01*
X157049237Y-77519764D01*
X157079185Y-77544342D01*
X159437658Y-79902816D01*
X159462236Y-79932764D01*
X159492184Y-79957342D01*
X159492187Y-79957345D01*
X159521559Y-79981450D01*
X159581767Y-80030862D01*
X159718140Y-80103754D01*
X159831672Y-80138194D01*
X159866112Y-80148641D01*
X159880490Y-80150057D01*
X159981439Y-80160000D01*
X159981446Y-80160000D01*
X160019999Y-80163797D01*
X160058552Y-80160000D01*
X164774843Y-80160000D01*
X166035000Y-81420158D01*
X166035001Y-86353459D01*
X165968255Y-86373706D01*
X165583458Y-86579384D01*
X165246180Y-86856180D01*
X165191911Y-86922307D01*
X162331785Y-84062182D01*
X162307202Y-84032228D01*
X162187671Y-83934130D01*
X162051298Y-83861238D01*
X161903325Y-83816351D01*
X161787999Y-83804992D01*
X161787991Y-83804992D01*
X161749438Y-83801195D01*
X161710885Y-83804992D01*
X152231440Y-83804992D01*
X152192887Y-83801195D01*
X152154334Y-83804992D01*
X152154327Y-83804992D01*
X152053378Y-83814935D01*
X152039000Y-83816351D01*
X151891028Y-83861238D01*
X151754655Y-83934130D01*
X151694447Y-83983542D01*
X151665075Y-84007647D01*
X151665072Y-84007650D01*
X151635124Y-84032228D01*
X151610546Y-84062176D01*
X149805722Y-85867001D01*
X146873224Y-85867001D01*
X146904023Y-85742865D01*
X146916910Y-85467983D01*
X146875922Y-85195867D01*
X146782636Y-84936977D01*
X146720656Y-84821020D01*
X146480565Y-84754040D01*
X145694605Y-85540000D01*
X145708748Y-85554143D01*
X145529143Y-85733748D01*
X145515000Y-85719605D01*
X145500858Y-85733748D01*
X145321253Y-85554143D01*
X145335395Y-85540000D01*
X144549435Y-84754040D01*
X144309344Y-84821020D01*
X144245515Y-84956760D01*
X144213005Y-84878273D01*
X144060120Y-84649465D01*
X143985090Y-84574435D01*
X144729040Y-84574435D01*
X145515000Y-85360395D01*
X146300960Y-84574435D01*
X146233980Y-84334344D01*
X145984952Y-84217244D01*
X145717865Y-84150977D01*
X145442983Y-84138090D01*
X145170867Y-84179078D01*
X144911977Y-84272364D01*
X144796020Y-84334344D01*
X144729040Y-84574435D01*
X143985090Y-84574435D01*
X143865535Y-84454880D01*
X143636727Y-84301995D01*
X143382490Y-84196686D01*
X143112592Y-84143000D01*
X142837408Y-84143000D01*
X142567510Y-84196686D01*
X142313273Y-84301995D01*
X142084465Y-84454880D01*
X141889880Y-84649465D01*
X141736995Y-84878273D01*
X141705000Y-84955515D01*
X141673005Y-84878273D01*
X141520120Y-84649465D01*
X141325535Y-84454880D01*
X141096727Y-84301995D01*
X140842490Y-84196686D01*
X140572592Y-84143000D01*
X140297408Y-84143000D01*
X140027510Y-84196686D01*
X139773273Y-84301995D01*
X139544465Y-84454880D01*
X139349880Y-84649465D01*
X139196995Y-84878273D01*
X139165000Y-84955515D01*
X139133005Y-84878273D01*
X138980120Y-84649465D01*
X138785535Y-84454880D01*
X138556727Y-84301995D01*
X138302490Y-84196686D01*
X138032592Y-84143000D01*
X137757408Y-84143000D01*
X137632920Y-84167762D01*
X136122347Y-82657190D01*
X136097764Y-82627236D01*
X135978233Y-82529138D01*
X135841860Y-82456246D01*
X135693887Y-82411359D01*
X135578561Y-82400000D01*
X135578553Y-82400000D01*
X135540000Y-82396203D01*
X135501447Y-82400000D01*
X134310158Y-82400000D01*
X133500000Y-81589843D01*
X133500000Y-76731702D01*
X135203903Y-76731702D01*
X135275486Y-76975671D01*
X135530996Y-77096571D01*
X135805184Y-77165300D01*
X136087512Y-77179217D01*
X136367130Y-77137787D01*
X136633292Y-77042603D01*
X136758514Y-76975671D01*
X136830097Y-76731702D01*
X136017000Y-75918605D01*
X135203903Y-76731702D01*
X133500000Y-76731702D01*
X133500000Y-75809512D01*
X134576783Y-75809512D01*
X134618213Y-76089130D01*
X134713397Y-76355292D01*
X134780329Y-76480514D01*
X135024298Y-76552097D01*
X135837395Y-75739000D01*
X136196605Y-75739000D01*
X137009702Y-76552097D01*
X137253671Y-76480514D01*
X137374571Y-76225004D01*
X137443300Y-75950816D01*
X137457217Y-75668488D01*
X137415787Y-75388870D01*
X137320603Y-75122708D01*
X137253671Y-74997486D01*
X137009702Y-74925903D01*
X136196605Y-75739000D01*
X135837395Y-75739000D01*
X135024298Y-74925903D01*
X134780329Y-74997486D01*
X134659429Y-75252996D01*
X134590700Y-75527184D01*
X134576783Y-75809512D01*
X133500000Y-75809512D01*
X133500000Y-74746298D01*
X135203903Y-74746298D01*
X136017000Y-75559395D01*
X136830097Y-74746298D01*
X136758514Y-74502329D01*
X136503004Y-74381429D01*
X136228816Y-74312700D01*
X135946488Y-74298783D01*
X135666870Y-74340213D01*
X135400708Y-74435397D01*
X135275486Y-74502329D01*
X135203903Y-74746298D01*
X133500000Y-74746298D01*
X133500000Y-71524000D01*
X134815661Y-71524000D01*
X134902363Y-71653759D01*
X135102241Y-71853637D01*
X135337273Y-72010680D01*
X135598426Y-72118853D01*
X135875665Y-72174000D01*
X136158335Y-72174000D01*
X136435574Y-72118853D01*
X136696727Y-72010680D01*
X136931759Y-71853637D01*
X137131637Y-71653759D01*
X137218339Y-71524000D01*
X137723843Y-71524000D01*
X138280001Y-72080159D01*
X138280000Y-74256447D01*
X138276203Y-74295000D01*
X138280000Y-74333553D01*
X138280000Y-74333560D01*
X138291359Y-74448886D01*
X138336246Y-74596859D01*
X138409138Y-74733232D01*
X138507236Y-74852764D01*
X138537190Y-74877347D01*
X139752658Y-76092815D01*
X139777236Y-76122764D01*
X139807184Y-76147342D01*
X139807187Y-76147345D01*
X139836559Y-76171450D01*
X139896767Y-76220862D01*
X140033140Y-76293754D01*
X140146672Y-76328194D01*
X140181112Y-76338641D01*
X140195490Y-76340057D01*
X140296439Y-76350000D01*
X140296446Y-76350000D01*
X140334999Y-76353797D01*
X140373552Y-76350000D01*
X141447044Y-76350000D01*
X141501155Y-76451235D01*
X141699537Y-76692963D01*
X141941265Y-76891345D01*
X142217051Y-77038755D01*
X142516296Y-77129530D01*
X142749514Y-77152500D01*
X143000486Y-77152500D01*
X143233704Y-77129530D01*
X143532949Y-77038755D01*
X143808735Y-76891345D01*
X144050463Y-76692963D01*
X144248845Y-76451235D01*
X144396255Y-76175449D01*
X144487030Y-75876204D01*
X144517681Y-75565000D01*
X144487030Y-75253796D01*
X144396255Y-74954551D01*
X144248845Y-74678765D01*
X144050463Y-74437037D01*
X143871101Y-74289837D01*
X144056315Y-74134437D01*
X144250969Y-73891923D01*
X144394571Y-73616094D01*
X144465563Y-73397980D01*
X144345594Y-73152000D01*
X143002000Y-73152000D01*
X143002000Y-73172000D01*
X142748000Y-73172000D01*
X142748000Y-73152000D01*
X141404406Y-73152000D01*
X141284437Y-73397980D01*
X141355429Y-73616094D01*
X141499031Y-73891923D01*
X141693685Y-74134437D01*
X141878899Y-74289837D01*
X141699537Y-74437037D01*
X141501155Y-74678765D01*
X141447044Y-74780000D01*
X140660158Y-74780000D01*
X139850000Y-73969843D01*
X139850000Y-71793555D01*
X139853797Y-71755000D01*
X139850000Y-71716444D01*
X139850000Y-71716439D01*
X139844564Y-71661246D01*
X139838642Y-71601113D01*
X139793754Y-71453140D01*
X139775360Y-71418727D01*
X139720862Y-71316767D01*
X139671450Y-71256559D01*
X139647345Y-71227187D01*
X139647342Y-71227184D01*
X139622764Y-71197236D01*
X139592815Y-71172657D01*
X138631347Y-70211190D01*
X138606764Y-70181236D01*
X138487233Y-70083138D01*
X138350860Y-70010246D01*
X138202887Y-69965359D01*
X138087561Y-69954000D01*
X138087553Y-69954000D01*
X138049000Y-69950203D01*
X138010447Y-69954000D01*
X137218339Y-69954000D01*
X137131637Y-69824241D01*
X136931759Y-69624363D01*
X136696727Y-69467320D01*
X136435574Y-69359147D01*
X136158335Y-69304000D01*
X135875665Y-69304000D01*
X135598426Y-69359147D01*
X135337273Y-69467320D01*
X135102241Y-69624363D01*
X134902363Y-69824241D01*
X134815661Y-69954000D01*
X133134552Y-69954000D01*
X133095999Y-69950203D01*
X133057446Y-69954000D01*
X133057439Y-69954000D01*
X132956490Y-69963943D01*
X132942112Y-69965359D01*
X132907672Y-69975806D01*
X132794140Y-70010246D01*
X132657767Y-70083138D01*
X132538236Y-70181236D01*
X132513653Y-70211190D01*
X132187190Y-70537653D01*
X132157236Y-70562236D01*
X132059138Y-70681768D01*
X131986246Y-70818141D01*
X131941359Y-70966114D01*
X131930000Y-71081440D01*
X131930000Y-71081447D01*
X131926203Y-71120000D01*
X131930000Y-71158553D01*
X131930001Y-81589841D01*
X127342842Y-86177001D01*
X127079324Y-86177001D01*
X127117000Y-85987592D01*
X127117000Y-85712408D01*
X127063314Y-85442510D01*
X126958005Y-85188273D01*
X126805120Y-84959465D01*
X126610535Y-84764880D01*
X126381727Y-84611995D01*
X126304485Y-84580000D01*
X126381727Y-84548005D01*
X126610535Y-84395120D01*
X126805120Y-84200535D01*
X126958005Y-83971727D01*
X127063314Y-83717490D01*
X127117000Y-83447592D01*
X127117000Y-83172408D01*
X127063314Y-82902510D01*
X126958005Y-82648273D01*
X126805120Y-82419465D01*
X126610535Y-82224880D01*
X126381727Y-82071995D01*
X126304485Y-82040000D01*
X126381727Y-82008005D01*
X126610535Y-81855120D01*
X126805120Y-81660535D01*
X126958005Y-81431727D01*
X127063314Y-81177490D01*
X127117000Y-80907592D01*
X127117000Y-80632408D01*
X127063314Y-80362510D01*
X126958005Y-80108273D01*
X126815471Y-79894957D01*
X126836108Y-79869811D01*
X127359812Y-79346107D01*
X127389765Y-79321525D01*
X127487863Y-79201994D01*
X127560755Y-79065621D01*
X127568484Y-79040141D01*
X127605643Y-78917648D01*
X127615832Y-78814189D01*
X127617001Y-78802322D01*
X127617001Y-78802317D01*
X127620798Y-78763761D01*
X127617001Y-78725205D01*
X127617001Y-74300557D01*
X127620798Y-74262001D01*
X127617001Y-74223445D01*
X127617001Y-74223440D01*
X127612860Y-74181397D01*
X127605643Y-74108114D01*
X127560755Y-73960141D01*
X127487863Y-73823768D01*
X127389765Y-73704237D01*
X127359816Y-73679659D01*
X127092238Y-73412080D01*
X127117000Y-73287592D01*
X127117000Y-73012408D01*
X127063314Y-72742510D01*
X126958005Y-72488273D01*
X126805120Y-72259465D01*
X126610535Y-72064880D01*
X126381727Y-71911995D01*
X126268272Y-71865000D01*
X126381727Y-71818005D01*
X126610535Y-71665120D01*
X126805120Y-71470535D01*
X126958005Y-71241727D01*
X127063314Y-70987490D01*
X127117000Y-70717592D01*
X127117000Y-70442408D01*
X127063314Y-70172510D01*
X126958005Y-69918273D01*
X126805120Y-69689465D01*
X126610535Y-69494880D01*
X126381727Y-69341995D01*
X126127490Y-69236686D01*
X126018467Y-69215000D01*
X126331033Y-69215000D01*
X126646912Y-69152168D01*
X126944463Y-69028918D01*
X127212252Y-68849987D01*
X127439987Y-68622252D01*
X127618918Y-68354463D01*
X127742168Y-68056912D01*
X127805000Y-67741033D01*
X127805000Y-67418967D01*
X127742168Y-67103088D01*
X127618918Y-66805537D01*
X127439987Y-66537748D01*
X127212252Y-66310013D01*
X126944463Y-66131082D01*
X126646912Y-66007832D01*
X126331033Y-65945000D01*
X126008967Y-65945000D01*
X125693088Y-66007832D01*
X125395537Y-66131082D01*
X125127748Y-66310013D01*
X124900013Y-66537748D01*
X124721082Y-66805537D01*
X124597832Y-67103088D01*
X124535000Y-67418967D01*
X124535000Y-67741033D01*
X124597832Y-68056912D01*
X124721082Y-68354463D01*
X124900013Y-68622252D01*
X125127748Y-68849987D01*
X125395537Y-69028918D01*
X125693088Y-69152168D01*
X125848092Y-69183000D01*
X125582408Y-69183000D01*
X125312510Y-69236686D01*
X125058273Y-69341995D01*
X124829465Y-69494880D01*
X124634880Y-69689465D01*
X124481995Y-69918273D01*
X124376686Y-70172510D01*
X124323000Y-70442408D01*
X124323000Y-70717592D01*
X124376686Y-70987490D01*
X124481995Y-71241727D01*
X124634880Y-71470535D01*
X124829465Y-71665120D01*
X125058273Y-71818005D01*
X125171728Y-71865000D01*
X125058273Y-71911995D01*
X124829465Y-72064880D01*
X124634880Y-72259465D01*
X124481995Y-72488273D01*
X124376686Y-72742510D01*
X124323000Y-73012408D01*
X124323000Y-73287592D01*
X124376686Y-73557490D01*
X124481995Y-73811727D01*
X124634880Y-74040535D01*
X124829465Y-74235120D01*
X125058273Y-74388005D01*
X125135515Y-74420000D01*
X125058273Y-74451995D01*
X124829465Y-74604880D01*
X124634880Y-74799465D01*
X124564364Y-74905000D01*
X124373556Y-74905000D01*
X124335000Y-74901203D01*
X124296444Y-74905000D01*
X124296439Y-74905000D01*
X124256026Y-74908980D01*
X124181113Y-74916358D01*
X124053753Y-74954993D01*
X124033140Y-74961246D01*
X123896767Y-75034138D01*
X123777236Y-75132236D01*
X123752653Y-75162190D01*
X121392185Y-77522658D01*
X121362237Y-77547236D01*
X121337659Y-77577184D01*
X121337655Y-77577188D01*
X121304690Y-77617356D01*
X121264139Y-77666767D01*
X121251318Y-77690754D01*
X121191246Y-77803141D01*
X121146359Y-77951114D01*
X121131203Y-78105000D01*
X121135001Y-78143563D01*
X121135000Y-119341447D01*
X121131203Y-119380000D01*
X121135000Y-119418553D01*
X121135000Y-119418560D01*
X121146359Y-119533886D01*
X121191246Y-119681859D01*
X121264138Y-119818232D01*
X121362236Y-119937764D01*
X121392190Y-119962347D01*
X126216843Y-124787001D01*
X125897158Y-124787001D01*
X120165000Y-119054843D01*
X120165000Y-86398552D01*
X120168797Y-86359999D01*
X120165000Y-86321446D01*
X120165000Y-86321439D01*
X120153641Y-86206113D01*
X120151220Y-86198130D01*
X120140633Y-86163232D01*
X120108754Y-86058140D01*
X120035862Y-85921767D01*
X119986450Y-85861559D01*
X119962345Y-85832187D01*
X119962342Y-85832184D01*
X119937764Y-85802236D01*
X119907816Y-85777658D01*
X118024348Y-83894191D01*
X117999765Y-83864237D01*
X117880234Y-83766139D01*
X117743861Y-83693247D01*
X117595888Y-83648360D01*
X117480562Y-83637001D01*
X117480554Y-83637001D01*
X117442001Y-83633204D01*
X117403448Y-83637001D01*
X104829324Y-83637001D01*
X104867000Y-83447592D01*
X104867000Y-83172408D01*
X104813314Y-82902510D01*
X104708005Y-82648273D01*
X104555120Y-82419465D01*
X104360535Y-82224880D01*
X104131727Y-82071995D01*
X104054485Y-82040000D01*
X104131727Y-82008005D01*
X104360535Y-81855120D01*
X104555120Y-81660535D01*
X104708005Y-81431727D01*
X104813314Y-81177490D01*
X104867000Y-80907592D01*
X104867000Y-80632408D01*
X104813314Y-80362510D01*
X104708005Y-80108273D01*
X104555120Y-79879465D01*
X104360535Y-79684880D01*
X104131727Y-79531995D01*
X104054485Y-79500000D01*
X104131727Y-79468005D01*
X104360535Y-79315120D01*
X104555120Y-79120535D01*
X104708005Y-78891727D01*
X104813314Y-78637490D01*
X104867000Y-78367592D01*
X104867000Y-78092408D01*
X104813314Y-77822510D01*
X104708005Y-77568273D01*
X104555120Y-77339465D01*
X104360535Y-77144880D01*
X104131727Y-76991995D01*
X104054485Y-76960000D01*
X104131727Y-76928005D01*
X104360535Y-76775120D01*
X104555120Y-76580535D01*
X104708005Y-76351727D01*
X104813314Y-76097490D01*
X104867000Y-75827592D01*
X104867000Y-75552408D01*
X104813314Y-75282510D01*
X104708005Y-75028273D01*
X104555120Y-74799465D01*
X104360535Y-74604880D01*
X104131727Y-74451995D01*
X104054485Y-74420000D01*
X104131727Y-74388005D01*
X104360535Y-74235120D01*
X104555120Y-74040535D01*
X104708005Y-73811727D01*
X104813314Y-73557490D01*
X104867000Y-73287592D01*
X104867000Y-73012408D01*
X104813314Y-72742510D01*
X104708005Y-72488273D01*
X104555120Y-72259465D01*
X104360535Y-72064880D01*
X104131727Y-71911995D01*
X104018272Y-71865000D01*
X104131727Y-71818005D01*
X104360535Y-71665120D01*
X104555120Y-71470535D01*
X104708005Y-71241727D01*
X104813314Y-70987490D01*
X104867000Y-70717592D01*
X104867000Y-70442408D01*
X104813314Y-70172510D01*
X104708005Y-69918273D01*
X104555120Y-69689465D01*
X104360535Y-69494880D01*
X104131727Y-69341995D01*
X103877490Y-69236686D01*
X103607592Y-69183000D01*
X103332408Y-69183000D01*
X103062510Y-69236686D01*
X102808273Y-69341995D01*
X102579465Y-69494880D01*
X102384880Y-69689465D01*
X102231995Y-69918273D01*
X102126686Y-70172510D01*
X102073000Y-70442408D01*
X102073000Y-70717592D01*
X102126686Y-70987490D01*
X102231995Y-71241727D01*
X102384880Y-71470535D01*
X102579465Y-71665120D01*
X102808273Y-71818005D01*
X102921728Y-71865000D01*
X102808273Y-71911995D01*
X102579465Y-72064880D01*
X102384880Y-72259465D01*
X102231995Y-72488273D01*
X102126686Y-72742510D01*
X102073000Y-73012408D01*
X102073000Y-73287592D01*
X102126686Y-73557490D01*
X102231995Y-73811727D01*
X102384880Y-74040535D01*
X102579465Y-74235120D01*
X102808273Y-74388005D01*
X102885515Y-74420000D01*
X102808273Y-74451995D01*
X102579465Y-74604880D01*
X102384880Y-74799465D01*
X102231995Y-75028273D01*
X102126686Y-75282510D01*
X102073000Y-75552408D01*
X102073000Y-75827592D01*
X102126686Y-76097490D01*
X102231995Y-76351727D01*
X102384880Y-76580535D01*
X102579465Y-76775120D01*
X102808273Y-76928005D01*
X102885515Y-76960000D01*
X102808273Y-76991995D01*
X102579465Y-77144880D01*
X102384880Y-77339465D01*
X102231995Y-77568273D01*
X102126686Y-77822510D01*
X102073000Y-78092408D01*
X102073000Y-78367592D01*
X102126686Y-78637490D01*
X102231995Y-78891727D01*
X102384880Y-79120535D01*
X102579465Y-79315120D01*
X102808273Y-79468005D01*
X102885515Y-79500000D01*
X102808273Y-79531995D01*
X102579465Y-79684880D01*
X102384880Y-79879465D01*
X102231995Y-80108273D01*
X102126686Y-80362510D01*
X102073000Y-80632408D01*
X102073000Y-80907592D01*
X102126686Y-81177490D01*
X102231995Y-81431727D01*
X102384880Y-81660535D01*
X102579465Y-81855120D01*
X102808273Y-82008005D01*
X102885515Y-82040000D01*
X102808273Y-82071995D01*
X102579465Y-82224880D01*
X102384880Y-82419465D01*
X102231995Y-82648273D01*
X102126686Y-82902510D01*
X102073000Y-83172408D01*
X102073000Y-83447592D01*
X102111690Y-83642098D01*
X102048114Y-83648359D01*
X101900141Y-83693247D01*
X101763768Y-83766139D01*
X101745223Y-83781359D01*
X101674188Y-83839656D01*
X101674185Y-83839659D01*
X101644237Y-83864237D01*
X101619658Y-83894186D01*
X101072189Y-84441656D01*
X101042236Y-84466238D01*
X100944138Y-84585770D01*
X100871246Y-84722143D01*
X100826359Y-84870116D01*
X100815000Y-84985442D01*
X100815000Y-84985449D01*
X100811203Y-85024002D01*
X99187000Y-85024002D01*
X99187000Y-67418967D01*
X102385000Y-67418967D01*
X102385000Y-67741033D01*
X102447832Y-68056912D01*
X102571082Y-68354463D01*
X102750013Y-68622252D01*
X102977748Y-68849987D01*
X103245537Y-69028918D01*
X103543088Y-69152168D01*
X103858967Y-69215000D01*
X104181033Y-69215000D01*
X104496912Y-69152168D01*
X104794463Y-69028918D01*
X105062252Y-68849987D01*
X105289987Y-68622252D01*
X105468918Y-68354463D01*
X105592168Y-68056912D01*
X105655000Y-67741033D01*
X105655000Y-67418967D01*
X105592168Y-67103088D01*
X105468918Y-66805537D01*
X105289987Y-66537748D01*
X105062252Y-66310013D01*
X104794463Y-66131082D01*
X104496912Y-66007832D01*
X104181033Y-65945000D01*
X103858967Y-65945000D01*
X103543088Y-66007832D01*
X103245537Y-66131082D01*
X102977748Y-66310013D01*
X102750013Y-66537748D01*
X102571082Y-66805537D01*
X102447832Y-67103088D01*
X102385000Y-67418967D01*
X99187000Y-67418967D01*
X99187000Y-58869344D01*
X99715000Y-58869344D01*
X99715000Y-59240656D01*
X99787439Y-59604834D01*
X99929534Y-59947882D01*
X100135825Y-60256618D01*
X100398382Y-60519175D01*
X100707118Y-60725466D01*
X101050166Y-60867561D01*
X101414344Y-60940000D01*
X101785656Y-60940000D01*
X102149834Y-60867561D01*
X102492882Y-60725466D01*
X102801618Y-60519175D01*
X102817293Y-60503500D01*
X159029411Y-60503500D01*
X159029411Y-64323500D01*
X183489590Y-64323500D01*
X183489590Y-60503500D01*
X159029411Y-60503500D01*
X102817293Y-60503500D01*
X103064175Y-60256618D01*
X103270466Y-59947882D01*
X103412561Y-59604834D01*
X103485000Y-59240656D01*
X103485000Y-58869344D01*
X103412561Y-58505166D01*
X103270466Y-58162118D01*
X103064175Y-57853382D01*
X102801618Y-57590825D01*
X102492882Y-57384534D01*
X102149834Y-57242439D01*
X101785656Y-57170000D01*
X101414344Y-57170000D01*
X101050166Y-57242439D01*
X100707118Y-57384534D01*
X100398382Y-57590825D01*
X100135825Y-57853382D01*
X99929534Y-58162118D01*
X99787439Y-58505166D01*
X99715000Y-58869344D01*
X99187000Y-58869344D01*
X99187000Y-56007000D01*
X190436500Y-56007000D01*
X190436500Y-57913728D01*
G37*
%TD.AperFunction*%
D18*
X133402658Y-83712815D02*
X133427236Y-83742764D01*
X133457184Y-83767342D01*
X133457187Y-83767345D01*
X133474263Y-83781359D01*
X133546767Y-83840862D01*
X133683140Y-83913754D01*
X133796672Y-83948194D01*
X133831112Y-83958641D01*
X133845490Y-83960057D01*
X133946439Y-83970000D01*
X133946446Y-83970000D01*
X133984999Y-83973797D01*
X134023552Y-83970000D01*
X135214843Y-83970000D01*
X136522762Y-85277920D01*
X136498000Y-85402408D01*
X136498000Y-85677592D01*
X136551686Y-85947490D01*
X136656995Y-86201727D01*
X136809880Y-86430535D01*
X137004465Y-86625120D01*
X137233273Y-86778005D01*
X137487510Y-86883314D01*
X137757408Y-86937000D01*
X138032592Y-86937000D01*
X138302490Y-86883314D01*
X138556727Y-86778005D01*
X138785535Y-86625120D01*
X138980120Y-86430535D01*
X139133005Y-86201727D01*
X139165000Y-86124485D01*
X139196995Y-86201727D01*
X139349880Y-86430535D01*
X139544465Y-86625120D01*
X139650001Y-86695637D01*
X139650000Y-88326447D01*
X139646203Y-88365000D01*
X139650000Y-88403553D01*
X139650000Y-88403560D01*
X139661359Y-88518886D01*
X139706246Y-88666859D01*
X139779138Y-88803232D01*
X139877236Y-88922764D01*
X139907190Y-88947347D01*
X141022653Y-90062810D01*
X141047236Y-90092764D01*
X141166767Y-90190862D01*
X141303140Y-90263754D01*
X141451113Y-90308642D01*
X141526026Y-90316020D01*
X141566439Y-90320000D01*
X141566444Y-90320000D01*
X141605000Y-90323797D01*
X141643556Y-90320000D01*
X147916447Y-90320000D01*
X147955000Y-90323797D01*
X147993553Y-90320000D01*
X147993561Y-90320000D01*
X148108887Y-90308641D01*
X148256860Y-90263754D01*
X148393233Y-90190862D01*
X148512764Y-90092764D01*
X148537347Y-90062810D01*
X151750157Y-86850000D01*
X152721928Y-86850000D01*
X152725000Y-88614250D01*
X152883750Y-88773000D01*
X154813000Y-88773000D01*
X154813000Y-86373750D01*
X154654250Y-86215000D01*
X153360000Y-86211928D01*
X153235518Y-86224188D01*
X153115820Y-86260498D01*
X153005506Y-86319463D01*
X152908815Y-86398815D01*
X152829463Y-86495506D01*
X152770498Y-86605820D01*
X152734188Y-86725518D01*
X152721928Y-86850000D01*
X151750157Y-86850000D01*
X152725158Y-85875000D01*
X157499160Y-85875000D01*
X157485319Y-85886359D01*
X157447197Y-85917645D01*
X157447194Y-85917648D01*
X157417246Y-85942226D01*
X157392667Y-85972175D01*
X156968352Y-86396490D01*
X156874494Y-86319463D01*
X156764180Y-86260498D01*
X156644482Y-86224188D01*
X156520000Y-86211928D01*
X155225750Y-86215000D01*
X155067000Y-86373750D01*
X155067000Y-88773000D01*
X155087000Y-88773000D01*
X155087000Y-89027000D01*
X155067000Y-89027000D01*
X155067000Y-91426250D01*
X155225750Y-91585000D01*
X156184991Y-91587277D01*
X156184990Y-106532723D01*
X155225750Y-106535000D01*
X155067000Y-106693750D01*
X155067000Y-109093000D01*
X155087000Y-109093000D01*
X155087000Y-109347000D01*
X155067000Y-109347000D01*
X155067000Y-111746250D01*
X155225750Y-111905000D01*
X156517910Y-111908067D01*
X156757663Y-112147820D01*
X156782246Y-112177774D01*
X156901777Y-112275872D01*
X157038150Y-112348764D01*
X157151682Y-112383204D01*
X157186122Y-112393651D01*
X157199819Y-112395000D01*
X157301449Y-112405010D01*
X157301456Y-112405010D01*
X157340009Y-112408807D01*
X157378562Y-112405010D01*
X160421437Y-112405010D01*
X160459990Y-112408807D01*
X160498543Y-112405010D01*
X160498551Y-112405010D01*
X160613877Y-112393651D01*
X160761850Y-112348764D01*
X160898223Y-112275872D01*
X161017754Y-112177774D01*
X161042337Y-112147820D01*
X161640456Y-111549701D01*
X162008256Y-111746294D01*
X162075000Y-111766541D01*
X162075000Y-113291447D01*
X162071203Y-113330000D01*
X162075000Y-113368553D01*
X162075000Y-113368560D01*
X162086359Y-113483886D01*
X162131246Y-113631859D01*
X162204138Y-113768232D01*
X162302236Y-113887764D01*
X162332190Y-113912347D01*
X163247657Y-114827815D01*
X163272236Y-114857764D01*
X163302184Y-114882342D01*
X163302187Y-114882345D01*
X163331559Y-114906450D01*
X163391767Y-114955862D01*
X163528140Y-115028754D01*
X163676112Y-115073641D01*
X163690490Y-115075057D01*
X163791439Y-115085000D01*
X163791446Y-115085000D01*
X163829999Y-115088797D01*
X163868552Y-115085000D01*
X169506447Y-115085000D01*
X169545000Y-115088797D01*
X169583553Y-115085000D01*
X169583561Y-115085000D01*
X169698887Y-115073641D01*
X169846860Y-115028754D01*
X169983233Y-114955862D01*
X170102764Y-114857764D01*
X170127347Y-114827810D01*
X173882810Y-111072347D01*
X173912764Y-111047764D01*
X174010862Y-110928233D01*
X174083754Y-110791860D01*
X174113978Y-110692226D01*
X174128642Y-110643887D01*
X174138701Y-110541745D01*
X174140000Y-110528561D01*
X174140000Y-110528556D01*
X174143797Y-110490000D01*
X174140000Y-110451444D01*
X174140000Y-86859395D01*
X174773286Y-86226109D01*
X174909880Y-86430535D01*
X175104465Y-86625120D01*
X175210000Y-86695636D01*
X175210001Y-102960726D01*
X175166246Y-103042587D01*
X175121359Y-103190560D01*
X175110000Y-103305886D01*
X175110000Y-103305893D01*
X175106203Y-103344446D01*
X175110000Y-103382999D01*
X175110001Y-112069842D01*
X171759843Y-115420000D01*
X129865157Y-115420000D01*
X126505000Y-112059843D01*
X126505000Y-111270000D01*
X152721928Y-111270000D01*
X152734188Y-111394482D01*
X152770498Y-111514180D01*
X152829463Y-111624494D01*
X152908815Y-111721185D01*
X153005506Y-111800537D01*
X153115820Y-111859502D01*
X153235518Y-111895812D01*
X153360000Y-111908072D01*
X154654250Y-111905000D01*
X154813000Y-111746250D01*
X154813000Y-109347000D01*
X152883750Y-109347000D01*
X152725000Y-109505750D01*
X152721928Y-111270000D01*
X126505000Y-111270000D01*
X126505000Y-107170000D01*
X152721928Y-107170000D01*
X152725000Y-108934250D01*
X152883750Y-109093000D01*
X154813000Y-109093000D01*
X154813000Y-106693750D01*
X154654250Y-106535000D01*
X153360000Y-106531928D01*
X153235518Y-106544188D01*
X153115820Y-106580498D01*
X153005506Y-106639463D01*
X152908815Y-106718815D01*
X152829463Y-106815506D01*
X152770498Y-106925820D01*
X152734188Y-107045518D01*
X152721928Y-107170000D01*
X126505000Y-107170000D01*
X126505000Y-102245636D01*
X126610535Y-102175120D01*
X126805120Y-101980535D01*
X126958005Y-101751727D01*
X127063314Y-101497490D01*
X127117000Y-101227592D01*
X127117000Y-100952408D01*
X127063314Y-100682510D01*
X126958005Y-100428273D01*
X126805120Y-100199465D01*
X126610535Y-100004880D01*
X126381727Y-99851995D01*
X126310057Y-99822308D01*
X126323023Y-99817636D01*
X126438980Y-99755656D01*
X126505960Y-99515565D01*
X125720000Y-98729605D01*
X125705858Y-98743748D01*
X125526253Y-98564143D01*
X125540395Y-98550000D01*
X125899605Y-98550000D01*
X126685565Y-99335960D01*
X126925656Y-99268980D01*
X127042756Y-99019952D01*
X127109023Y-98752865D01*
X127121910Y-98477983D01*
X127080922Y-98205867D01*
X126987636Y-97946977D01*
X126925656Y-97831020D01*
X126685565Y-97764040D01*
X125899605Y-98550000D01*
X125540395Y-98550000D01*
X125526253Y-98535858D01*
X125705858Y-98356253D01*
X125720000Y-98370395D01*
X126505960Y-97584435D01*
X126438980Y-97344344D01*
X126303240Y-97280515D01*
X126381727Y-97248005D01*
X126610535Y-97095120D01*
X126805120Y-96900535D01*
X126958005Y-96671727D01*
X127063314Y-96417490D01*
X127117000Y-96147592D01*
X127117000Y-95872408D01*
X127063314Y-95602510D01*
X126958005Y-95348273D01*
X126805120Y-95119465D01*
X126610535Y-94924880D01*
X126381727Y-94771995D01*
X126310057Y-94742308D01*
X126323023Y-94737636D01*
X126438980Y-94675656D01*
X126505960Y-94435565D01*
X125720000Y-93649605D01*
X125705858Y-93663748D01*
X125526253Y-93484143D01*
X125540395Y-93470000D01*
X125899605Y-93470000D01*
X126685565Y-94255960D01*
X126925656Y-94188980D01*
X127042756Y-93939952D01*
X127109023Y-93672865D01*
X127121910Y-93397983D01*
X127080922Y-93125867D01*
X126987636Y-92866977D01*
X126925656Y-92751020D01*
X126685565Y-92684040D01*
X125899605Y-93470000D01*
X125540395Y-93470000D01*
X125526253Y-93455858D01*
X125705858Y-93276253D01*
X125720000Y-93290395D01*
X126505960Y-92504435D01*
X126438980Y-92264344D01*
X126303240Y-92200515D01*
X126381727Y-92168005D01*
X126610535Y-92015120D01*
X126805120Y-91820535D01*
X126958005Y-91591727D01*
X127063314Y-91337490D01*
X127117000Y-91067592D01*
X127117000Y-90950000D01*
X152721928Y-90950000D01*
X152734188Y-91074482D01*
X152770498Y-91194180D01*
X152829463Y-91304494D01*
X152908815Y-91401185D01*
X153005506Y-91480537D01*
X153115820Y-91539502D01*
X153235518Y-91575812D01*
X153360000Y-91588072D01*
X154654250Y-91585000D01*
X154813000Y-91426250D01*
X154813000Y-89027000D01*
X152883750Y-89027000D01*
X152725000Y-89185750D01*
X152721928Y-90950000D01*
X127117000Y-90950000D01*
X127117000Y-90792408D01*
X127063314Y-90522510D01*
X126958005Y-90268273D01*
X126805120Y-90039465D01*
X126610535Y-89844880D01*
X126381727Y-89691995D01*
X126304485Y-89660000D01*
X126381727Y-89628005D01*
X126610535Y-89475120D01*
X126805120Y-89280535D01*
X126958005Y-89051727D01*
X127063314Y-88797490D01*
X127117000Y-88527592D01*
X127117000Y-88252408D01*
X127063314Y-87982510D01*
X126965762Y-87747001D01*
X127629446Y-87747001D01*
X127667999Y-87750798D01*
X127706552Y-87747001D01*
X127706560Y-87747001D01*
X127821886Y-87735642D01*
X127969859Y-87690755D01*
X128106232Y-87617863D01*
X128225763Y-87519765D01*
X128250346Y-87489811D01*
X132715000Y-83025158D01*
X133402658Y-83712815D01*
%TA.AperFunction,Conductor*%
D19*
G36*
X133402658Y-83712815D02*
G01*
X133427236Y-83742764D01*
X133457184Y-83767342D01*
X133457187Y-83767345D01*
X133474263Y-83781359D01*
X133546767Y-83840862D01*
X133683140Y-83913754D01*
X133796672Y-83948194D01*
X133831112Y-83958641D01*
X133845490Y-83960057D01*
X133946439Y-83970000D01*
X133946446Y-83970000D01*
X133984999Y-83973797D01*
X134023552Y-83970000D01*
X135214843Y-83970000D01*
X136522762Y-85277920D01*
X136498000Y-85402408D01*
X136498000Y-85677592D01*
X136551686Y-85947490D01*
X136656995Y-86201727D01*
X136809880Y-86430535D01*
X137004465Y-86625120D01*
X137233273Y-86778005D01*
X137487510Y-86883314D01*
X137757408Y-86937000D01*
X138032592Y-86937000D01*
X138302490Y-86883314D01*
X138556727Y-86778005D01*
X138785535Y-86625120D01*
X138980120Y-86430535D01*
X139133005Y-86201727D01*
X139165000Y-86124485D01*
X139196995Y-86201727D01*
X139349880Y-86430535D01*
X139544465Y-86625120D01*
X139650001Y-86695637D01*
X139650000Y-88326447D01*
X139646203Y-88365000D01*
X139650000Y-88403553D01*
X139650000Y-88403560D01*
X139661359Y-88518886D01*
X139706246Y-88666859D01*
X139779138Y-88803232D01*
X139877236Y-88922764D01*
X139907190Y-88947347D01*
X141022653Y-90062810D01*
X141047236Y-90092764D01*
X141166767Y-90190862D01*
X141303140Y-90263754D01*
X141451113Y-90308642D01*
X141526026Y-90316020D01*
X141566439Y-90320000D01*
X141566444Y-90320000D01*
X141605000Y-90323797D01*
X141643556Y-90320000D01*
X147916447Y-90320000D01*
X147955000Y-90323797D01*
X147993553Y-90320000D01*
X147993561Y-90320000D01*
X148108887Y-90308641D01*
X148256860Y-90263754D01*
X148393233Y-90190862D01*
X148512764Y-90092764D01*
X148537347Y-90062810D01*
X151750157Y-86850000D01*
X152721928Y-86850000D01*
X152725000Y-88614250D01*
X152883750Y-88773000D01*
X154813000Y-88773000D01*
X154813000Y-86373750D01*
X154654250Y-86215000D01*
X153360000Y-86211928D01*
X153235518Y-86224188D01*
X153115820Y-86260498D01*
X153005506Y-86319463D01*
X152908815Y-86398815D01*
X152829463Y-86495506D01*
X152770498Y-86605820D01*
X152734188Y-86725518D01*
X152721928Y-86850000D01*
X151750157Y-86850000D01*
X152725158Y-85875000D01*
X157499160Y-85875000D01*
X157485319Y-85886359D01*
X157447197Y-85917645D01*
X157447194Y-85917648D01*
X157417246Y-85942226D01*
X157392667Y-85972175D01*
X156968352Y-86396490D01*
X156874494Y-86319463D01*
X156764180Y-86260498D01*
X156644482Y-86224188D01*
X156520000Y-86211928D01*
X155225750Y-86215000D01*
X155067000Y-86373750D01*
X155067000Y-88773000D01*
X155087000Y-88773000D01*
X155087000Y-89027000D01*
X155067000Y-89027000D01*
X155067000Y-91426250D01*
X155225750Y-91585000D01*
X156184991Y-91587277D01*
X156184990Y-106532723D01*
X155225750Y-106535000D01*
X155067000Y-106693750D01*
X155067000Y-109093000D01*
X155087000Y-109093000D01*
X155087000Y-109347000D01*
X155067000Y-109347000D01*
X155067000Y-111746250D01*
X155225750Y-111905000D01*
X156517910Y-111908067D01*
X156757663Y-112147820D01*
X156782246Y-112177774D01*
X156901777Y-112275872D01*
X157038150Y-112348764D01*
X157151682Y-112383204D01*
X157186122Y-112393651D01*
X157199819Y-112395000D01*
X157301449Y-112405010D01*
X157301456Y-112405010D01*
X157340009Y-112408807D01*
X157378562Y-112405010D01*
X160421437Y-112405010D01*
X160459990Y-112408807D01*
X160498543Y-112405010D01*
X160498551Y-112405010D01*
X160613877Y-112393651D01*
X160761850Y-112348764D01*
X160898223Y-112275872D01*
X161017754Y-112177774D01*
X161042337Y-112147820D01*
X161640456Y-111549701D01*
X162008256Y-111746294D01*
X162075000Y-111766541D01*
X162075000Y-113291447D01*
X162071203Y-113330000D01*
X162075000Y-113368553D01*
X162075000Y-113368560D01*
X162086359Y-113483886D01*
X162131246Y-113631859D01*
X162204138Y-113768232D01*
X162302236Y-113887764D01*
X162332190Y-113912347D01*
X163247657Y-114827815D01*
X163272236Y-114857764D01*
X163302184Y-114882342D01*
X163302187Y-114882345D01*
X163331559Y-114906450D01*
X163391767Y-114955862D01*
X163528140Y-115028754D01*
X163676112Y-115073641D01*
X163690490Y-115075057D01*
X163791439Y-115085000D01*
X163791446Y-115085000D01*
X163829999Y-115088797D01*
X163868552Y-115085000D01*
X169506447Y-115085000D01*
X169545000Y-115088797D01*
X169583553Y-115085000D01*
X169583561Y-115085000D01*
X169698887Y-115073641D01*
X169846860Y-115028754D01*
X169983233Y-114955862D01*
X170102764Y-114857764D01*
X170127347Y-114827810D01*
X173882810Y-111072347D01*
X173912764Y-111047764D01*
X174010862Y-110928233D01*
X174083754Y-110791860D01*
X174113978Y-110692226D01*
X174128642Y-110643887D01*
X174138701Y-110541745D01*
X174140000Y-110528561D01*
X174140000Y-110528556D01*
X174143797Y-110490000D01*
X174140000Y-110451444D01*
X174140000Y-86859395D01*
X174773286Y-86226109D01*
X174909880Y-86430535D01*
X175104465Y-86625120D01*
X175210000Y-86695636D01*
X175210001Y-102960726D01*
X175166246Y-103042587D01*
X175121359Y-103190560D01*
X175110000Y-103305886D01*
X175110000Y-103305893D01*
X175106203Y-103344446D01*
X175110000Y-103382999D01*
X175110001Y-112069842D01*
X171759843Y-115420000D01*
X129865157Y-115420000D01*
X126505000Y-112059843D01*
X126505000Y-111270000D01*
X152721928Y-111270000D01*
X152734188Y-111394482D01*
X152770498Y-111514180D01*
X152829463Y-111624494D01*
X152908815Y-111721185D01*
X153005506Y-111800537D01*
X153115820Y-111859502D01*
X153235518Y-111895812D01*
X153360000Y-111908072D01*
X154654250Y-111905000D01*
X154813000Y-111746250D01*
X154813000Y-109347000D01*
X152883750Y-109347000D01*
X152725000Y-109505750D01*
X152721928Y-111270000D01*
X126505000Y-111270000D01*
X126505000Y-107170000D01*
X152721928Y-107170000D01*
X152725000Y-108934250D01*
X152883750Y-109093000D01*
X154813000Y-109093000D01*
X154813000Y-106693750D01*
X154654250Y-106535000D01*
X153360000Y-106531928D01*
X153235518Y-106544188D01*
X153115820Y-106580498D01*
X153005506Y-106639463D01*
X152908815Y-106718815D01*
X152829463Y-106815506D01*
X152770498Y-106925820D01*
X152734188Y-107045518D01*
X152721928Y-107170000D01*
X126505000Y-107170000D01*
X126505000Y-102245636D01*
X126610535Y-102175120D01*
X126805120Y-101980535D01*
X126958005Y-101751727D01*
X127063314Y-101497490D01*
X127117000Y-101227592D01*
X127117000Y-100952408D01*
X127063314Y-100682510D01*
X126958005Y-100428273D01*
X126805120Y-100199465D01*
X126610535Y-100004880D01*
X126381727Y-99851995D01*
X126310057Y-99822308D01*
X126323023Y-99817636D01*
X126438980Y-99755656D01*
X126505960Y-99515565D01*
X125720000Y-98729605D01*
X125705858Y-98743748D01*
X125526253Y-98564143D01*
X125540395Y-98550000D01*
X125899605Y-98550000D01*
X126685565Y-99335960D01*
X126925656Y-99268980D01*
X127042756Y-99019952D01*
X127109023Y-98752865D01*
X127121910Y-98477983D01*
X127080922Y-98205867D01*
X126987636Y-97946977D01*
X126925656Y-97831020D01*
X126685565Y-97764040D01*
X125899605Y-98550000D01*
X125540395Y-98550000D01*
X125526253Y-98535858D01*
X125705858Y-98356253D01*
X125720000Y-98370395D01*
X126505960Y-97584435D01*
X126438980Y-97344344D01*
X126303240Y-97280515D01*
X126381727Y-97248005D01*
X126610535Y-97095120D01*
X126805120Y-96900535D01*
X126958005Y-96671727D01*
X127063314Y-96417490D01*
X127117000Y-96147592D01*
X127117000Y-95872408D01*
X127063314Y-95602510D01*
X126958005Y-95348273D01*
X126805120Y-95119465D01*
X126610535Y-94924880D01*
X126381727Y-94771995D01*
X126310057Y-94742308D01*
X126323023Y-94737636D01*
X126438980Y-94675656D01*
X126505960Y-94435565D01*
X125720000Y-93649605D01*
X125705858Y-93663748D01*
X125526253Y-93484143D01*
X125540395Y-93470000D01*
X125899605Y-93470000D01*
X126685565Y-94255960D01*
X126925656Y-94188980D01*
X127042756Y-93939952D01*
X127109023Y-93672865D01*
X127121910Y-93397983D01*
X127080922Y-93125867D01*
X126987636Y-92866977D01*
X126925656Y-92751020D01*
X126685565Y-92684040D01*
X125899605Y-93470000D01*
X125540395Y-93470000D01*
X125526253Y-93455858D01*
X125705858Y-93276253D01*
X125720000Y-93290395D01*
X126505960Y-92504435D01*
X126438980Y-92264344D01*
X126303240Y-92200515D01*
X126381727Y-92168005D01*
X126610535Y-92015120D01*
X126805120Y-91820535D01*
X126958005Y-91591727D01*
X127063314Y-91337490D01*
X127117000Y-91067592D01*
X127117000Y-90950000D01*
X152721928Y-90950000D01*
X152734188Y-91074482D01*
X152770498Y-91194180D01*
X152829463Y-91304494D01*
X152908815Y-91401185D01*
X153005506Y-91480537D01*
X153115820Y-91539502D01*
X153235518Y-91575812D01*
X153360000Y-91588072D01*
X154654250Y-91585000D01*
X154813000Y-91426250D01*
X154813000Y-89027000D01*
X152883750Y-89027000D01*
X152725000Y-89185750D01*
X152721928Y-90950000D01*
X127117000Y-90950000D01*
X127117000Y-90792408D01*
X127063314Y-90522510D01*
X126958005Y-90268273D01*
X126805120Y-90039465D01*
X126610535Y-89844880D01*
X126381727Y-89691995D01*
X126304485Y-89660000D01*
X126381727Y-89628005D01*
X126610535Y-89475120D01*
X126805120Y-89280535D01*
X126958005Y-89051727D01*
X127063314Y-88797490D01*
X127117000Y-88527592D01*
X127117000Y-88252408D01*
X127063314Y-87982510D01*
X126965762Y-87747001D01*
X127629446Y-87747001D01*
X127667999Y-87750798D01*
X127706552Y-87747001D01*
X127706560Y-87747001D01*
X127821886Y-87735642D01*
X127969859Y-87690755D01*
X128106232Y-87617863D01*
X128225763Y-87519765D01*
X128250346Y-87489811D01*
X132715000Y-83025158D01*
X133402658Y-83712815D01*
G37*
%TD.AperFunction*%
%TD*%
M02*
